<?xml version="1.0" encoding="UTF-8" standalone="no"?>
<!DOCTYPE svg PUBLIC "-//W3C//DTD SVG 1.1//EN" "http://www.w3.org/Graphics/SVG/1.1/DTD/svg11.dtd">
<svg xmlns="http://www.w3.org/2000/svg" version="1.1" viewBox="0.00 0.00 1024.00 1024.00">
<g stroke-width="2.00" fill="none" stroke-linecap="butt">
<path stroke="#f43203" vector-effect="non-scaling-stroke" d="
  M 500.47 467.95
  Q 498.11 469.53 494.97 468.68
  Q 493.44 468.27 491.96 468.72
  Q 491.49 468.85 491.11 468.56
  Q 489.64 467.42 487.78 468.26
  Q 487.33 468.47 487.34 468.97
  Q 487.35 469.30 487.37 469.65
  Q 487.44 470.58 486.92 469.82
  Q 486.85 469.72 486.86 469.59
  Q 486.91 469.28 486.77 469.01
  Q 486.65 468.77 486.41 468.72
  Q 485.99 468.63 485.98 469.06
  Q 485.95 469.91 485.10 470.44"
/>
<path stroke="#f43203" vector-effect="non-scaling-stroke" d="
  M 571.40 489.50
  Q 572.02 489.69 572.57 489.93
  Q 572.76 490.02 572.85 489.83
  Q 572.87 489.78 572.85 489.73
  Q 572.76 489.37 573.14 489.42
  Q 575.54 489.74 577.92 490.10
  Q 578.50 490.19 579.08 490.35
  Q 579.67 490.52 580.30 490.44
  Q 580.80 490.38 581.27 490.52
  Q 585.25 491.67 588.98 490.98
  Q 589.37 490.91 589.53 490.53
  A 0.85 0.84 -80.7 0 1 590.24 490.01
  Q 595.54 489.54 598.52 487.53
  Q 600.55 486.15 602.52 484.32
  Q 603.63 483.28 604.79 482.44
  Q 606.19 481.43 607.02 479.90
  Q 607.55 478.92 608.20 477.93
  Q 609.33 476.18 610.41 474.67
  Q 610.93 473.93 611.52 473.22
  Q 612.07 472.56 612.35 471.69
  Q 612.54 471.14 613.06 470.90
  Q 613.92 470.50 614.19 469.73
  Q 614.35 469.26 614.68 468.88
  L 617.03 466.22
  Q 617.40 465.80 617.85 465.47
  Q 620.28 463.74 621.34 461.39
  Q 621.52 461.00 621.86 460.74
  Q 622.79 460.01 623.20 458.98
  Q 623.85 457.30 623.99 455.37
  Q 624.04 454.76 624.48 454.34
  Q 625.36 453.52 625.39 452.42
  Q 625.40 451.97 625.71 451.66
  L 628.80 448.48
  Q 628.99 448.29 628.91 448.03
  Q 628.83 447.78 628.61 447.84
  Q 627.78 448.09 628.37 447.46
  Q 629.15 446.63 629.87 445.70
  Q 630.38 445.05 630.78 445.78
  Q 630.95 446.09 631.30 445.98
  Q 631.82 445.81 631.96 445.27
  C 632.85 441.75 634.91 440.83 636.95 438.36
  Q 637.26 437.99 637.70 437.79
  Q 638.89 437.23 639.85 436.33
  Q 640.20 435.98 640.12 435.49
  Q 639.93 434.41 640.49 433.52
  Q 640.67 433.24 640.98 433.14
  Q 642.24 432.78 642.10 431.36
  Q 642.04 430.75 642.42 430.27
  Q 644.66 427.44 647.16 426.13
  Q 648.94 425.19 650.44 423.06
  Q 650.43 422.54 650.90 422.58
  Q 651.34 422.61 651.64 422.28
  Q 653.29 420.42 655.91 421.11
  Q 656.00 421.13 656.09 421.19
  Q 656.17 421.24 656.15 421.34
  Q 656.03 421.94 656.51 421.56
  Q 657.16 421.03 657.71 421.71"
/>
<path stroke="#f43203" vector-effect="non-scaling-stroke" d="
  M 754.97 309.59
  Q 755.09 306.24 753.20 304.46
  Q 752.76 304.05 752.89 303.46
  Q 753.36 301.18 753.25 299.32
  Q 752.98 294.69 752.20 290.25
  Q 752.11 289.79 752.29 289.36
  L 753.25 287.04
  A 1.20 1.20 0.0 0 0 753.25 286.12
  Q 752.80 285.05 752.88 283.98
  Q 752.90 283.76 752.98 283.97
  Q 753.00 284.02 753.05 284.04
  Q 753.23 284.13 753.34 283.95
  Q 753.95 282.93 754.02 281.97"
/>
</g>
<path fill="#e83102" d="
  M 500.47 467.95
  Q 498.11 469.53 494.97 468.68
  Q 493.44 468.27 491.96 468.72
  Q 491.49 468.85 491.11 468.56
  Q 489.64 467.42 487.78 468.26
  Q 487.33 468.47 487.34 468.97
  Q 487.35 469.30 487.37 469.65
  Q 487.44 470.58 486.92 469.82
  Q 486.85 469.72 486.86 469.59
  Q 486.91 469.28 486.77 469.01
  Q 486.65 468.77 486.41 468.72
  Q 485.99 468.63 485.98 469.06
  Q 485.95 469.91 485.10 470.44
  Q 477.73 427.49 447.66 396.60
  Q 439.69 388.42 428.75 378.66
  Q 412.18 363.88 402.65 342.45
  Q 397.00 329.77 397.39 316.64
  Q 398.24 288.56 417.53 268.17
  C 428.53 256.54 445.30 248.47 461.38 247.79
  C 467.84 247.52 474.76 247.48 481.02 248.89
  C 489.19 250.73 495.85 254.24 502.85 258.49
  A 2.06 2.06 0.0 0 0 504.99 258.49
  Q 530.47 242.83 559.28 250.22
  C 579.70 255.46 596.92 270.39 605.29 289.23
  Q 613.13 306.89 610.38 327.99
  C 608.72 340.75 602.27 354.22 593.74 364.62
  Q 587.15 372.64 581.10 377.94
  Q 574.14 384.03 565.04 390.68
  C 552.95 399.50 545.09 410.10 539.16 424.25
  Q 531.56 442.36 529.59 461.83
  Q 529.18 465.84 528.55 470.02
  Q 528.55 470.06 528.43 470.06
  L 528.17 470.06
  Q 528.13 470.06 528.13 470.02
  Q 528.07 462.94 528.29 455.32
  Q 528.90 433.86 532.57 417.46
  C 534.49 408.86 538.08 398.80 543.31 391.41
  Q 549.53 382.63 555.30 377.47
  C 563.90 369.78 569.62 364.60 576.03 356.66
  Q 581.42 349.98 584.29 344.40
  Q 591.42 330.50 590.43 314.61
  C 589.24 295.49 578.76 280.52 561.53 271.94
  Q 554.93 268.65 548.75 267.62
  C 539.07 266.02 528.18 268.52 519.77 273.49
  Q 514.92 276.35 508.79 280.95
  C 504.67 284.02 500.13 281.63 496.08 278.84
  Q 491.29 275.54 486.48 272.47
  C 473.88 264.43 456.68 265.31 444.10 273.26
  Q 427.31 283.86 421.19 302.84
  C 415.45 320.64 421.58 340.44 432.65 355.28
  Q 439.56 364.53 445.96 370.16
  Q 458.46 381.14 469.55 395.46
  C 486.04 416.77 495.61 441.70 500.47 467.95
  Z"
/>
<path fill="#ff3203" d="
  M 485.10 470.44
  Q 485.95 469.91 485.98 469.06
  Q 485.99 468.63 486.41 468.72
  Q 486.65 468.77 486.77 469.01
  Q 486.91 469.28 486.86 469.59
  Q 486.85 469.72 486.92 469.82
  Q 487.44 470.58 487.37 469.65
  Q 487.35 469.30 487.34 468.97
  Q 487.33 468.47 487.78 468.26
  Q 489.64 467.42 491.11 468.56
  Q 491.49 468.85 491.96 468.72
  Q 493.44 468.27 494.97 468.68
  Q 498.11 469.53 500.47 467.95
  Q 503.66 486.65 501.72 506.23
  A 1.13 1.13 0.0 0 0 502.46 507.41
  Q 504.10 508.00 505.88 508.03
  Q 528.94 508.39 549.15 508.98
  C 553.98 509.12 558.02 502.93 561.19 499.77
  Q 566.33 494.66 571.40 489.50
  Q 572.02 489.69 572.57 489.93
  Q 572.76 490.02 572.85 489.83
  Q 572.87 489.78 572.85 489.73
  Q 572.76 489.37 573.14 489.42
  Q 575.54 489.74 577.92 490.10
  Q 578.50 490.19 579.08 490.35
  Q 579.67 490.52 580.30 490.44
  Q 580.80 490.38 581.27 490.52
  Q 585.25 491.67 588.98 490.98
  Q 589.37 490.91 589.53 490.53
  A 0.85 0.84 -80.7 0 1 590.24 490.01
  Q 595.54 489.54 598.52 487.53
  Q 600.55 486.15 602.52 484.32
  Q 603.63 483.28 604.79 482.44
  Q 606.19 481.43 607.02 479.90
  Q 607.55 478.92 608.20 477.93
  Q 609.33 476.18 610.41 474.67
  Q 610.93 473.93 611.52 473.22
  Q 612.07 472.56 612.35 471.69
  Q 612.54 471.14 613.06 470.90
  Q 613.92 470.50 614.19 469.73
  Q 614.35 469.26 614.68 468.88
  L 617.03 466.22
  Q 617.40 465.80 617.85 465.47
  Q 620.28 463.74 621.34 461.39
  Q 621.52 461.00 621.86 460.74
  Q 622.79 460.01 623.20 458.98
  Q 623.85 457.30 623.99 455.37
  Q 624.04 454.76 624.48 454.34
  Q 625.36 453.52 625.39 452.42
  Q 625.40 451.97 625.71 451.66
  L 628.80 448.48
  Q 628.99 448.29 628.91 448.03
  Q 628.83 447.78 628.61 447.84
  Q 627.78 448.09 628.37 447.46
  Q 629.15 446.63 629.87 445.70
  Q 630.38 445.05 630.78 445.78
  Q 630.95 446.09 631.30 445.98
  Q 631.82 445.81 631.96 445.27
  C 632.85 441.75 634.91 440.83 636.95 438.36
  Q 637.26 437.99 637.70 437.79
  Q 638.89 437.23 639.85 436.33
  Q 640.20 435.98 640.12 435.49
  Q 639.93 434.41 640.49 433.52
  Q 640.67 433.24 640.98 433.14
  Q 642.24 432.78 642.10 431.36
  Q 642.04 430.75 642.42 430.27
  Q 644.66 427.44 647.16 426.13
  Q 648.94 425.19 650.44 423.06
  Q 650.43 422.54 650.90 422.58
  Q 651.34 422.61 651.64 422.28
  Q 653.29 420.42 655.91 421.11
  Q 656.00 421.13 656.09 421.19
  Q 656.17 421.24 656.15 421.34
  Q 656.03 421.94 656.51 421.56
  Q 657.16 421.03 657.71 421.71
  Q 644.96 436.46 632.03 451.04
  C 629.62 453.74 627.80 456.58 625.86 459.60
  A 0.80 0.78 -52.8 0 0 625.99 460.63
  Q 634.28 468.08 640.87 476.10
  C 642.77 478.42 644.90 480.34 646.88 482.53
  A 0.97 0.97 0.0 0 0 648.21 482.63
  C 656.63 475.77 664.51 467.92 672.90 460.81
  Q 686.16 449.59 699.35 438.59
  C 705.24 433.69 711.51 429.23 717.33 424.26
  Q 724.21 418.37 730.63 413.28
  Q 765.39 385.67 797.58 356.35
  Q 809.28 345.70 818.41 336.37
  Q 825.77 328.86 830.57 320.96
  Q 836.79 310.74 831.87 299.59
  C 829.65 294.55 825.89 288.75 821.26 285.70
  C 815.14 281.68 809.57 278.35 801.91 279.08
  Q 792.44 279.98 786.27 283.55
  Q 769.49 293.26 754.97 309.59
  Q 755.09 306.24 753.20 304.46
  Q 752.76 304.05 752.89 303.46
  Q 753.36 301.18 753.25 299.32
  Q 752.98 294.69 752.20 290.25
  Q 752.11 289.79 752.29 289.36
  L 753.25 287.04
  A 1.20 1.20 0.0 0 0 753.25 286.12
  Q 752.80 285.05 752.88 283.98
  Q 752.90 283.76 752.98 283.97
  Q 753.00 284.02 753.05 284.04
  Q 753.23 284.13 753.34 283.95
  Q 753.95 282.93 754.02 281.97
  Q 768.41 267.55 784.79 259.75
  C 793.14 255.78 804.55 255.17 813.30 258.26
  C 826.33 262.86 836.06 270.17 844.72 281.17
  Q 851.55 289.84 853.38 299.10
  Q 856.23 313.56 851.72 325.51
  Q 849.52 331.35 843.85 340.12
  Q 839.59 346.73 833.49 353.10
  Q 823.10 363.96 813.98 371.51
  Q 809.87 374.91 806.45 378.01
  C 799.23 384.56 791.36 390.36 783.67 396.53
  Q 777.87 401.18 772.42 404.90
  C 767.24 408.44 762.31 412.44 757.25 416.06
  C 744.31 425.30 731.89 434.77 718.83 444.09
  C 706.78 452.68 695.22 461.55 683.25 470.20
  C 673.88 476.96 664.62 484.46 654.40 491.28
  C 650.53 493.86 649.28 496.06 650.72 500.82
  C 652.36 506.25 656.03 505.85 661.34 505.85
  C 675.50 505.83 690.07 504.88 704.22 505.87
  C 710.82 506.33 717.75 509.08 720.28 515.58
  C 721.74 519.31 722.13 523.85 722.07 527.91
  C 721.83 545.97 720.91 564.10 716.76 581.81
  Q 714.66 590.76 713.77 594.09
  Q 706.86 619.94 695.73 642.41
  Q 693.58 646.75 690.87 651.32
  Q 688.19 655.84 685.62 659.80
  Q 680.57 667.60 672.83 677.34
  Q 666.09 685.83 659.64 692.42
  Q 643.96 708.44 626.31 721.26
  Q 620.79 725.27 615.45 728.45
  C 610.48 731.41 605.76 734.79 600.61 737.39
  C 583.06 746.28 565.49 753.48 546.18 757.80
  Q 542.79 758.55 539.56 759.67
  Q 534.95 761.25 532.48 761.41
  Q 513.64 762.58 493.25 761.94
  C 486.92 761.75 481.03 761.24 474.74 759.94
  C 469.42 758.83 463.91 757.91 458.84 756.21
  C 453.25 754.34 447.55 753.23 442.08 751.10
  C 434.74 748.23 427.13 746.18 420.11 742.51
  C 415.10 739.89 409.73 738.14 404.88 735.11
  C 398.06 730.86 390.66 727.18 384.02 722.44
  Q 377.49 717.78 370.92 713.28
  Q 368.89 711.89 367.06 710.18
  Q 361.12 704.60 355.07 699.24
  Q 352.32 696.80 349.87 694.26
  C 347.63 691.92 345.19 689.69 343.19 687.19
  C 338.97 681.93 334.37 677.57 330.59 671.86
  C 327.94 667.85 324.99 664.12 322.45 659.81
  Q 314.78 646.82 308.68 634.77
  Q 305.08 627.67 298.73 611.42
  Q 293.52 598.12 290.27 584.71
  Q 289.05 579.69 286.04 563.84
  C 283.71 551.58 282.20 539.23 281.74 526.82
  C 281.46 519.34 283.58 512.42 289.26 507.86
  C 291.47 506.08 293.68 505.00 296.61 504.91
  Q 313.68 504.39 329.07 504.97
  Q 335.05 505.20 344.12 506.25
  Q 352.36 507.21 360.08 506.63
  Q 361.32 506.54 360.32 505.79
  Q 357.78 503.87 355.34 502.13
  Q 336.55 488.65 315.17 473.79
  C 304.18 466.14 292.73 459.43 281.94 451.60
  Q 273.03 445.14 268.47 440.94
  Q 260.07 433.20 253.94 425.49
  Q 249.60 420.04 245.15 410.95
  Q 233.16 386.42 241.87 360.49
  C 248.88 339.65 264.93 321.81 287.30 317.23
  C 314.63 311.64 340.20 323.06 359.21 343.07
  C 366.65 350.89 373.60 359.20 380.04 367.80
  Q 411.03 409.15 441.10 449.86
  Q 450.00 461.91 472.08 495.34
  C 474.72 499.33 477.12 503.76 480.06 507.55
  A 1.71 1.71 0.0 0 0 482.68 507.65
  Q 484.63 505.49 485.36 502.39
  Q 489.11 486.51 485.10 470.44
  Z
  M 463.86 506.58
  Q 463.71 505.80 463.23 505.04
  Q 449.41 483.14 434.29 464.68
  C 418.71 445.65 403.15 426.69 387.58 408.94
  C 381.05 401.48 374.91 393.82 368.43 386.03
  C 364.37 381.16 361.89 375.38 357.81 370.52
  Q 352.83 364.60 347.58 358.86
  Q 337.81 348.19 325.32 340.86
  Q 316.21 335.51 304.32 334.82
  Q 286.41 333.80 274.19 343.26
  C 263.69 351.40 256.44 367.06 256.62 380.31
  Q 256.71 387.43 259.08 394.50
  C 265.88 414.75 279.93 430.34 296.94 442.78
  C 301.81 446.34 306.33 450.32 311.01 453.66
  Q 339.54 474.01 367.06 494.94
  Q 374.94 500.94 383.25 506.34
  Q 385.21 507.62 387.25 507.62
  Q 420.35 507.51 450.95 507.77
  C 455.08 507.80 459.07 507.51 463.16 507.44
  A 0.72 0.72 0.0 0 0 463.86 506.58
  Z
  M 307.20 556.40
  Q 306.92 561.79 307.85 565.83
  C 309.65 573.65 311.23 581.55 313.45 589.39
  Q 317.35 603.10 319.35 608.59
  Q 322.87 618.20 327.59 629.67
  C 329.88 635.22 332.89 640.12 335.82 645.31
  Q 338.88 650.73 342.94 656.37
  Q 352.41 669.56 360.43 677.87
  Q 369.09 686.84 382.44 697.44
  C 387.24 701.25 395.18 705.94 401.32 710.46
  Q 405.05 713.22 409.28 715.67
  Q 426.64 725.77 443.37 731.58
  Q 452.53 734.76 470.30 738.72
  Q 478.84 740.62 486.55 741.10
  Q 495.39 741.65 503.44 741.78
  Q 531.81 742.25 559.27 733.57
  Q 564.09 732.04 568.70 730.10
  C 574.48 727.66 580.35 725.83 585.69 722.80
  C 591.92 719.27 598.37 716.31 604.12 712.29
  C 609.24 708.72 614.81 705.48 619.51 701.35
  Q 624.78 696.73 630.47 692.10
  C 633.37 689.74 635.90 687.00 638.71 684.59
  Q 641.84 681.90 644.74 678.85
  Q 654.28 668.82 659.38 661.60
  Q 664.78 653.97 669.76 646.42
  Q 671.85 643.26 673.68 639.98
  C 676.72 634.52 680.12 629.20 682.49 623.51
  C 687.49 611.52 690.97 598.68 694.66 586.05
  Q 696.73 578.98 697.27 573.32
  Q 698.37 561.69 698.87 551.77
  Q 699.07 547.94 698.66 543.68
  Q 698.46 541.53 696.30 541.33
  C 687.36 540.53 678.15 540.94 669.00 540.84
  Q 646.38 540.60 619.00 540.28
  Q 617.15 540.26 615.25 540.23
  Q 567.30 539.70 515.00 539.55
  Q 511.67 539.54 508.00 539.53
  Q 457.61 539.47 405.50 539.79
  C 390.32 539.88 373.48 539.05 357.20 539.79
  Q 347.07 540.24 337.88 539.94
  C 334.56 539.83 331.07 540.17 327.69 540.44
  A 0.87 0.87 0.0 0 0 327.09 541.87
  Q 331.92 547.68 337.25 550.78
  C 344.04 554.73 350.80 558.59 358.59 561.22
  Q 371.72 565.65 384.79 567.91
  C 391.73 569.11 398.78 569.46 405.74 570.48
  C 413.71 571.65 421.25 574.45 422.71 583.40
  C 423.83 590.31 423.66 598.52 424.17 605.87
  Q 424.57 611.45 425.23 616.23
  C 426.29 623.91 428.88 633.70 432.34 640.94
  C 436.05 648.70 441.07 656.69 447.43 662.64
  C 451.41 666.37 455.40 670.49 460.08 672.89
  C 464.84 675.33 469.47 678.01 474.58 679.80
  Q 481.23 682.12 489.32 683.24
  C 509.51 686.03 526.59 681.21 543.11 670.31
  C 546.82 667.86 549.74 664.76 552.93 661.85
  C 558.44 656.82 562.18 650.29 566.15 643.75
  Q 568.51 639.86 570.06 635.39
  Q 573.39 625.79 574.98 617.37
  C 577.08 606.17 576.62 593.42 576.79 581.80
  A 1.46 1.46 0.0 0 1 578.48 580.37
  C 583.15 581.13 587.26 583.97 591.09 586.62
  C 595.83 589.89 596.29 594.34 597.61 599.44
  C 598.42 602.60 598.55 605.69 598.12 608.92
  Q 596.87 618.36 593.99 629.74
  Q 592.77 634.57 591.18 638.02
  Q 589.15 642.46 587.65 646.68
  Q 585.43 652.95 582.16 657.92
  Q 576.27 666.88 569.90 673.90
  Q 567.79 676.22 564.99 678.44
  C 560.46 682.04 556.15 685.91 551.22 688.81
  Q 533.58 699.20 515.93 702.23
  Q 498.79 705.18 476.83 700.26
  C 471.82 699.14 466.68 696.67 461.69 694.81
  Q 458.01 693.44 453.73 691.16
  Q 449.70 689.00 445.88 686.54
  Q 439.08 682.15 431.68 674.45
  C 421.69 664.05 414.78 650.13 408.91 636.48
  C 407.47 633.14 406.90 629.26 406.01 625.74
  Q 403.19 614.56 402.95 601.50
  C 402.89 598.15 403.42 594.91 403.11 591.64
  A 1.91 1.89 -80.1 0 0 402.06 590.13
  Q 399.71 588.97 396.74 588.59
  Q 370.20 585.17 346.94 576.19
  Q 340.68 573.77 337.00 571.50
  C 331.57 568.15 325.58 565.32 320.66 561.64
  Q 314.25 556.84 307.42 552.34
  Q 306.86 551.97 306.76 552.64
  C 306.59 553.91 307.26 555.16 307.20 556.40
  Z"
/>
<path fill="#e83102" d="
  M 754.02 281.97
  Q 753.95 282.93 753.34 283.95
  Q 753.23 284.13 753.05 284.04
  Q 753.00 284.02 752.98 283.97
  Q 752.90 283.76 752.88 283.98
  Q 752.80 285.05 753.25 286.12
  A 1.20 1.20 0.0 0 1 753.25 287.04
  L 752.29 289.36
  Q 752.11 289.79 752.20 290.25
  Q 752.98 294.69 753.25 299.32
  Q 753.36 301.18 752.89 303.46
  Q 752.76 304.05 753.20 304.46
  Q 755.09 306.24 754.97 309.59
  Q 740.76 324.92 724.45 344.71
  Q 716.84 353.95 703.87 368.84
  Q 680.83 395.31 657.71 421.71
  Q 657.16 421.03 656.51 421.56
  Q 656.03 421.94 656.15 421.34
  Q 656.17 421.24 656.09 421.19
  Q 656.00 421.13 655.91 421.11
  Q 653.29 420.42 651.64 422.28
  Q 651.34 422.61 650.90 422.58
  Q 650.43 422.54 650.44 423.06
  Q 648.94 425.19 647.16 426.13
  Q 644.66 427.44 642.42 430.27
  Q 642.04 430.75 642.10 431.36
  Q 642.24 432.78 640.98 433.14
  Q 640.67 433.24 640.49 433.52
  Q 639.93 434.41 640.12 435.49
  Q 640.20 435.98 639.85 436.33
  Q 638.89 437.23 637.70 437.79
  Q 637.26 437.99 636.95 438.36
  C 634.91 440.83 632.85 441.75 631.96 445.27
  Q 631.82 445.81 631.30 445.98
  Q 630.95 446.09 630.78 445.78
  Q 630.38 445.05 629.87 445.70
  Q 629.15 446.63 628.37 447.46
  Q 627.78 448.09 628.61 447.84
  Q 628.83 447.78 628.91 448.03
  Q 628.99 448.29 628.80 448.48
  L 625.71 451.66
  Q 625.40 451.97 625.39 452.42
  Q 625.36 453.52 624.48 454.34
  Q 624.04 454.76 623.99 455.37
  Q 623.85 457.30 623.20 458.98
  Q 622.79 460.01 621.86 460.74
  Q 621.52 461.00 621.34 461.39
  Q 620.28 463.74 617.85 465.47
  Q 617.40 465.80 617.03 466.22
  L 614.68 468.88
  Q 614.35 469.26 614.19 469.73
  Q 613.92 470.50 613.06 470.90
  Q 612.54 471.14 612.35 471.69
  Q 612.07 472.56 611.52 473.22
  Q 610.93 473.93 610.41 474.67
  Q 609.33 476.18 608.20 477.93
  Q 607.55 478.92 607.02 479.90
  Q 606.19 481.43 604.79 482.44
  Q 603.63 483.28 602.52 484.32
  Q 600.55 486.15 598.52 487.53
  Q 595.54 489.54 590.24 490.01
  A 0.85 0.84 -80.7 0 0 589.53 490.53
  Q 589.37 490.91 588.98 490.98
  Q 585.25 491.67 581.27 490.52
  Q 580.80 490.38 580.30 490.44
  Q 579.67 490.52 579.08 490.35
  Q 578.50 490.19 577.92 490.10
  Q 575.54 489.74 573.14 489.42
  Q 572.76 489.37 572.85 489.73
  Q 572.87 489.78 572.85 489.83
  Q 572.76 490.02 572.57 489.93
  Q 572.02 489.69 571.40 489.50
  Q 609.73 446.85 648.79 404.91
  C 657.70 395.34 667.38 383.40 674.62 375.37
  C 694.32 353.52 712.59 330.40 730.85 307.35
  Q 735.84 301.05 754.02 281.97
  Z"
/>
<ellipse fill="#ff3203" cx="0.00" cy="0.00" transform="translate(804.77,306.89) rotate(19.7)" rx="14.36" ry="12.86"/>
<path fill="#ff3203" d="
  M 315.75 355.34
  Q 310.86 353.02 304.58 352.22
  Q 293.41 350.79 284.66 356.70
  C 279.10 360.46 276.42 367.43 274.40 374.00
  C 273.48 376.99 272.91 379.87 273.66 382.98
  Q 275.94 392.38 281.46 400.36
  Q 295.05 420.00 313.06 433.93
  Q 313.78 434.50 313.21 435.22
  Q 309.59 439.77 304.73 443.64
  A 1.70 1.70 0.0 0 1 303.01 443.88
  Q 301.20 443.12 299.61 441.76
  Q 293.63 436.59 287.82 431.21
  C 273.43 417.86 261.94 401.08 260.91 381.12
  Q 260.32 369.73 265.76 359.53
  Q 274.56 343.04 292.28 339.48
  C 309.47 336.03 326.02 343.32 338.73 355.39
  Q 350.33 366.42 361.40 381.51
  Q 362.76 383.36 363.32 385.56
  Q 363.48 386.18 363.01 386.62
  L 355.28 393.73
  Q 354.65 394.31 354.23 393.57
  C 345.36 377.76 332.06 363.10 315.75 355.34
  Z"
/>
<path fill="#ff3203" d="
  M 307.06 362.73
  L 306.84 362.51
  A 0.64 0.63 -36.9 0 0 306.10 362.41
  Q 300.31 365.50 296.14 370.30
  C 288.63 378.94 290.82 388.19 298.21 395.63
  C 303.46 400.91 309.30 405.01 315.04 409.64
  Q 321.39 414.76 328.85 420.71
  Q 330.13 421.73 328.92 422.84
  Q 323.12 428.15 316.95 432.82
  A 1.71 1.70 46.5 0 1 314.81 432.76
  Q 302.38 422.21 292.93 410.27
  C 286.33 401.92 274.33 387.32 277.45 375.85
  C 278.31 372.70 279.87 369.74 281.24 366.70
  C 284.99 358.40 293.53 354.94 302.18 355.24
  Q 307.86 355.43 314.05 358.50
  Q 325.98 364.41 333.77 372.05
  Q 337.95 376.15 343.38 383.21
  Q 347.91 389.08 352.41 394.76
  A 1.11 1.10 -43.9 0 1 352.38 396.16
  Q 348.46 400.78 343.48 405.06
  Q 342.75 405.69 342.15 404.94
  Q 339.43 401.55 336.10 398.42
  Q 327.65 390.44 316.68 381.61
  Q 310.54 376.68 303.99 368.25
  Q 303.73 367.92 303.74 367.50
  Q 303.85 364.55 307.05 362.81
  A 0.05 0.05 0.0 0 0 307.06 362.73
  Z"
/>
<path fill="#ff3203" d="
  M 340.03 410.53
  C 341.18 413.60 343.62 415.86 345.71 418.31
  Q 347.67 420.58 349.71 422.61
  Q 372.67 445.37 379.47 453.41
  Q 387.46 462.86 393.99 469.65
  Q 394.12 469.79 394.00 469.93
  L 393.99 469.93
  Q 393.84 470.11 393.66 469.96
  C 390.47 467.38 387.08 465.46 383.87 462.70
  Q 360.16 442.41 338.45 424.04
  C 336.29 422.21 334.06 420.68 331.75 419.12
  C 328.24 416.75 325.06 413.42 321.91 410.62
  C 315.54 404.96 308.78 399.95 302.38 394.20
  C 298.28 390.52 294.14 384.12 296.03 378.66
  Q 297.66 373.96 301.09 371.03
  Q 301.51 370.67 301.85 371.11
  Q 307.71 378.51 311.60 381.70
  C 319.54 388.20 327.73 394.57 334.56 401.95
  Q 338.33 406.02 340.03 410.53
  Z"
/>
<path fill="#ff3203" d="
  M 608.20 556.20
  C 612.88 561.15 613.44 568.58 608.83 573.67
  C 604.40 578.56 598.42 582.30 592.15 577.34
  Q 585.66 572.19 586.06 564.61
  C 586.33 559.57 588.67 555.31 593.78 553.72
  C 598.31 552.30 604.74 552.53 608.20 556.20
  Z"
/>
<path fill="#ff3203" d="
  M 633.81 578.08
  Q 628.01 575.78 623.70 568.68
  A 1.87 1.84 36.6 0 1 623.48 567.28
  Q 624.11 564.50 624.49 561.51
  C 625.06 557.00 628.65 554.26 632.75 553.38
  Q 639.42 551.94 645.10 555.39
  C 648.36 557.37 649.15 560.19 649.98 563.62
  Q 650.67 566.49 650.32 568.63
  C 648.95 576.98 641.83 581.25 633.81 578.08
  Z"
/>
<path fill="#ff3203" d="
  M 690.25 567.31
  C 688.38 580.53 671.12 578.74 664.49 570.85
  Q 662.08 567.98 662.41 564.12
  C 662.83 559.37 664.12 554.75 669.08 553.59
  C 676.31 551.90 684.66 553.49 688.85 560.13
  Q 690.82 563.26 690.25 567.31
  Z"
/>
<ellipse fill="#ff3203" cx="0.00" cy="0.00" transform="translate(621.14,594.31) rotate(44.7)" rx="13.82" ry="12.50"/>
<path fill="#ff3203" d="
  M 662.70 606.48
  Q 656.83 602.95 650.31 600.02
  C 648.42 599.17 648.66 597.03 648.87 595.32
  C 649.83 587.60 653.05 581.99 661.83 581.27
  Q 664.67 581.03 666.76 582.11
  C 670.78 584.17 675.58 586.70 676.89 591.45
  Q 678.88 598.69 676.55 604.08
  C 674.03 609.90 667.30 609.25 662.70 606.48
  Z"
/>
<path fill="#ff3203" d="
  M 340.19 589.74
  C 345.20 589.32 350.00 592.98 353.04 596.71
  C 356.35 600.79 355.77 606.05 352.41 609.87
  C 348.47 614.33 340.40 617.45 334.75 614.16
  C 330.82 611.86 326.60 606.73 327.48 601.87
  Q 329.51 590.62 340.19 589.74
  Z"
/>
<path fill="#ff3203" d="
  M 643.56 616.92
  C 645.59 614.07 650.65 612.74 653.72 613.00
  C 658.96 613.44 664.77 616.14 667.57 620.55
  C 670.17 624.65 669.49 632.52 664.94 635.16
  Q 657.30 639.59 648.83 636.35
  Q 644.19 634.57 642.62 631.31
  Q 638.86 623.49 643.56 616.92
  Z"
/>
<ellipse fill="#ff3203" cx="0.00" cy="0.00" transform="translate(617.88,626.70) rotate(12.2)" rx="14.33" ry="12.28"/>
<path fill="#e83102" d="
  M 355.47 649.25
  C 346.28 648.89 342.82 641.02 343.03 632.97
  C 343.15 628.11 348.34 624.15 352.36 622.14
  Q 360.98 617.82 366.38 625.32
  C 369.36 629.45 371.42 637.13 367.57 641.46
  Q 364.65 644.73 360.17 647.89
  Q 358.07 649.36 355.47 649.25
  Z"
/>
<path fill="#ff3203" d="
  M 631.15 666.89
  Q 627.70 665.41 626.72 661.74
  Q 625.03 655.38 625.37 651.69
  C 625.63 648.73 628.60 642.56 632.50 642.25
  C 639.73 641.66 644.67 642.37 649.04 648.49
  C 653.28 654.45 651.34 662.63 645.31 666.08
  Q 638.45 670.01 631.15 666.89
  Z"
/>
<path fill="#ff3203" d="
  M 604.11 645.02
  C 611.21 648.23 615.69 654.80 614.77 662.47
  A 1.81 1.80 -14.5 0 1 614.01 663.75
  C 608.18 667.84 598.92 670.44 592.48 666.58
  Q 589.96 665.07 588.92 661.46
  C 587.40 656.18 590.56 650.49 594.23 646.63
  Q 598.27 642.38 604.11 645.02
  Z"
/>
<path fill="#ff3203" d="
  M 370.56 674.83
  C 367.68 671.66 364.99 666.84 366.10 662.43
  Q 367.47 656.99 372.22 653.43
  C 376.50 650.22 384.57 648.95 389.21 652.91
  Q 394.59 657.51 394.74 663.25
  Q 394.93 670.30 389.41 673.79
  Q 385.14 676.48 380.92 677.76
  Q 374.89 679.60 370.56 674.83
  Z"
/>
<path fill="#ff3203" d="
  M 615.68 672.40
  C 620.63 674.42 622.50 679.80 622.86 684.77
  Q 623.23 689.86 619.28 693.22
  Q 616.77 695.36 614.46 696.18
  C 609.93 697.80 602.05 697.48 598.51 693.55
  Q 595.66 690.38 595.03 685.95
  C 594.09 679.30 603.15 671.08 609.37 671.03
  Q 612.28 671.01 615.68 672.40
  Z"
/>
<path fill="#ff3203" d="
  M 402.64 704.71
  Q 395.91 701.27 393.31 694.63
  Q 391.70 690.48 394.78 686.35
  Q 398.59 681.25 405.43 680.74
  C 409.82 680.42 415.04 684.56 417.27 688.10
  Q 421.12 694.18 416.55 701.00
  Q 411.14 709.06 402.64 704.71
  Z"
/>
</svg>
