<?xml version="1.0" encoding="UTF-8"?>
<!-- Generator: visioncortex VTracer 0.6.3 -->
<svg version="1.1" xmlns="http://www.w3.org/2000/svg" width="1280" height="1280">
<path d="M0 0 C422.4 0 844.8 0 1280 0 C1280 422.4 1280 844.8 1280 1280 C857.6 1280 435.2 1280 0 1280 C0 857.6 0 435.2 0 0 Z " fill="#FAFCFC" transform="translate(0,0)"/>
<path d="M0 0 C1.92 -0 3.85 -0.01 5.77 -0.01 C11.05 -0.03 16.32 -0.02 21.6 -0.01 C27.29 -0 32.98 -0.01 38.68 -0.02 C49.83 -0.04 60.98 -0.03 72.12 -0.02 C81.19 -0.02 90.25 -0.02 99.31 -0.02 C101.24 -0.02 101.24 -0.02 103.21 -0.02 C105.83 -0.02 108.45 -0.02 111.07 -0.02 C134.94 -0.03 158.8 -0.02 182.67 -0.01 C204.45 0.01 226.23 0 248.01 -0.01 C272.48 -0.03 296.96 -0.03 321.44 -0.02 C324.05 -0.02 326.66 -0.02 329.27 -0.02 C331.19 -0.02 331.19 -0.02 333.16 -0.02 C342.21 -0.02 351.26 -0.02 360.31 -0.03 C371.34 -0.04 382.37 -0.03 393.4 -0.02 C399.02 -0.01 404.65 -0.01 410.28 -0.02 C415.43 -0.03 420.58 -0.02 425.73 -0.01 C427.6 -0 429.46 -0 431.32 -0.01 C449.07 -0.07 449.07 -0.07 456.29 3.38 C460.62 7.79 463.2 12.87 463.35 19.11 C463.06 26.14 461.87 31.9 457.29 37.38 C446.92 46.4 435.04 46.1 422.02 45.57 C410.62 44.77 400.2 40.39 389.83 35.87 C381.76 32.48 372.4 31.71 364.16 35.07 C359.95 37.25 358.15 39.68 356.71 44.2 C356.2 46.83 356.33 49.13 356.51 51.81 C356.61 53.37 356.61 53.37 356.7 54.97 C356.84 57.15 356.99 59.34 357.15 61.52 C357.72 71.56 357.72 71.56 354.29 76.38 C352.6 78.21 352.6 78.21 350.85 79.63 C350.27 80.11 349.7 80.59 349.1 81.08 C347.24 82.42 345.36 83.41 343.29 84.38 C343.29 84.71 343.29 85.04 343.29 85.38 C344.42 85.38 345.55 85.37 346.71 85.37 C357.42 85.33 368.13 85.3 378.84 85.28 C384.34 85.27 389.84 85.25 395.35 85.23 C400.67 85.21 405.99 85.2 411.32 85.19 C413.33 85.19 415.35 85.18 417.37 85.17 C449.37 85 449.37 85 456.29 89.38 C457.96 91.44 457.96 91.44 459.47 93.82 C459.98 94.6 460.49 95.38 461.02 96.19 C464 101.34 463.83 106.6 463.29 112.38 C461.49 118.98 456.94 123.72 451.29 127.38 C429.61 136.64 406.12 130.39 385.29 122.38 C384.44 122.02 383.58 121.66 382.71 121.3 C374.25 118.1 362.43 117.74 353.91 121.01 C349.64 123.03 345.6 125.47 341.61 128.01 C334.06 132.46 327.01 132.14 318.6 130.38 C312.04 128.63 306.4 125.46 300.54 122.12 C293.8 118.51 286.82 118.67 279.29 119.38 C274.57 120.89 270.65 123.41 266.64 126.27 C257.79 132.24 249.65 132.82 239.29 131.38 C235.64 130.5 232.6 129.12 229.29 127.38 C227 126.31 224.71 125.25 222.41 124.19 C221.34 123.68 220.27 123.18 219.17 122.65 C212 119.49 204.13 118.57 196.69 121.35 C191.16 123.78 185.79 126.51 180.46 129.35 C167.67 135.42 151.83 130.75 139.29 126.38 C137.65 125.83 136 125.29 134.36 124.75 C131.24 123.72 128.13 122.67 125.02 121.62 C113.79 117.9 99.17 117.28 88.29 122.38 C87.09 123.03 85.89 123.7 84.7 124.36 C74.59 129.95 65.86 133.1 54.26 129.81 C49.79 128.29 45.56 126.37 41.29 124.38 C24.89 117.81 12.1 119.83 -3.77 126.62 C-10.34 129.18 -17.86 129.65 -24.58 127.44 C-32.41 123.74 -35.96 119.11 -38.94 111.06 C-40.46 105.79 -41.12 101.15 -38.56 96.12 C-33.89 89.95 -28.09 87.89 -20.71 86.38 C-17.98 86.12 -15.3 85.92 -12.57 85.79 C-11.79 85.75 -11.01 85.71 -10.2 85.67 C-0.93 85.24 8.35 85.26 17.64 85.28 C19.52 85.29 21.4 85.29 23.28 85.29 C28.16 85.29 33.04 85.3 37.93 85.31 C42.93 85.32 47.94 85.33 52.95 85.33 C62.73 85.34 72.51 85.36 82.29 85.38 C79.9 83.95 77.52 82.52 75.12 81.1 C74.45 80.7 73.79 80.3 73.1 79.88 C72.43 79.48 71.75 79.08 71.06 78.66 C68.46 76.79 67.39 75.02 66.87 71.88 C66.77 70.36 66.77 70.36 66.66 68.82 C66.58 67.67 66.5 66.52 66.42 65.33 C66.32 62.46 66.32 59.7 66.44 56.84 C66.98 45.56 66.98 45.56 61.7 35.81 C59.23 33.31 58.34 33.15 54.72 33.01 C47.78 33.07 43.82 36.27 38.66 40.57 C32.28 45.44 23.09 46.08 15.29 45.38 C8.79 44.33 2.67 43.02 -3.36 40.37 C-10.28 37.52 -17.4 37.22 -24.79 36.6 C-35.3 35.57 -35.3 35.57 -39.71 31.38 C-41.71 25.97 -39.14 19.13 -37.1 14.03 C-33.62 7.38 -28.95 3.31 -21.77 1.02 C-14.66 -0.46 -7.23 -0.03 0 0 Z " fill="#763410" transform="translate(432.712890625,473.6190490722656)"/>
<path d="M0 0 C8.84 -0.43 19.32 0.11 27 5 C32.13 11.9 32.1 16.8 31 25 C30.29 28.79 29.39 32.51 28.44 36.25 C28.05 37.79 28.05 37.79 27.66 39.35 C25.44 47.88 22.68 56.17 19.63 64.42 C17.82 69.34 16.58 73.8 16 79 C15.67 79.66 15.34 80.32 15 81 C14.34 81 13.68 81 13 81 C13 83.64 13 86.28 13 89 C13.28 88.27 13.56 87.54 13.85 86.79 C16.35 80.27 18.87 73.75 21.41 67.24 C21.71 66.48 22 65.72 22.31 64.93 C23.54 61.79 24.76 58.64 25.99 55.5 C29.43 46.7 32.84 37.9 36 29 C42.47 29.49 42.47 29.49 44.79 31.74 C46 34 46 34 45.81 36.34 C41.94 48.72 37 60.46 31.41 72.14 C30.35 74.37 29.29 76.6 28.24 78.83 C25.6 84.42 22.96 90 20.3 95.57 C9.88 117.44 1.34 139.72 -1 164 C1.59 165.22 1.59 165.22 5 165 C17.59 157.25 25.96 138.06 32.02 125.06 C33.03 122.93 34.1 120.83 35.17 118.73 C43.09 103.01 49 86.14 53 69 C62.07 70.47 71.53 72.28 77.88 79.43 C81.15 84.02 81.28 88.55 81 94 C80.33 97.22 79.39 100.35 78.44 103.5 C78.17 104.41 77.9 105.31 77.63 106.25 C75.89 112.14 74.08 118.01 72.28 123.88 C65.96 143.59 65.96 143.59 63 164 C63.66 164 64.32 164 65 164 C65 164.66 65 165.32 65 166 C65.66 166 66.32 166 67 166 C67.27 165.41 67.53 164.82 67.81 164.21 C69.02 161.96 70.31 160.42 72.06 158.56 C85.91 143.02 95.79 123.87 103.77 104.79 C110.32 89.17 119.38 73.03 135.57 65.86 C138.76 64.73 141.95 63.95 145.29 63.36 C147.02 63.16 147.02 63.16 148 62 C153.55 61.44 157.89 63.11 163 65 C163.81 65.24 164.62 65.49 165.45 65.74 C174.09 68.6 180.38 74.19 184.74 82.19 C188.41 90.95 189.53 98.28 186.38 107.31 C183.92 112.83 180.93 115.34 175.69 118.31 C168.77 120.08 163.29 119.21 157 116 C157.56 115.22 158.11 114.43 158.69 113.62 C163.22 106.84 167.13 99.7 167.19 91.44 C167.2 90.47 167.22 89.5 167.23 88.5 C167.25 85.83 167.25 85.83 165 84 C157.69 84.34 153.75 88.87 149 94 C146.33 97.51 144.11 101.13 142 105 C141.54 105.84 141.08 106.68 140.6 107.55 C136.57 115.62 134.83 124.23 133 133 C132.8 133.82 132.61 134.64 132.41 135.48 C131.82 139.11 131.78 142.71 131.75 146.38 C131.73 147.1 131.71 147.83 131.69 148.59 C131.65 154.4 132.55 159.23 136.54 163.74 C140.75 166.64 144.76 168.72 150 168 C163.87 163.28 174.51 152.56 183 141 C183.78 139.96 184.55 138.92 185.36 137.85 C195.73 123.43 203.23 106.73 209.19 90.06 C209.47 89.29 209.75 88.52 210.03 87.72 C211.68 82.84 212.43 78.21 212.78 73.06 C213 71 213 71 214 69 C223.66 69.6 233.13 70.63 240 78 C243.51 84.2 243.81 89.82 242.09 96.58 C241.66 97.79 241.24 98.99 240.8 100.23 C240.33 101.61 239.86 102.99 239.39 104.37 C239.14 105.09 238.9 105.8 238.64 106.54 C234.53 118.41 230.93 130.27 228.31 142.56 C228.07 143.69 227.83 144.82 227.58 145.98 C226.34 152.1 225.76 157.75 226 164 C227.32 164 228.64 164 230 164 C230.26 163.41 230.53 162.83 230.8 162.23 C232.05 159.91 233.42 158.29 235.22 156.38 C239.21 151.91 242.33 147.11 245.44 142 C246 141.07 246.57 140.15 247.16 139.19 C252.48 130.38 257.02 121.35 261.39 112.04 C262.42 109.85 263.45 107.66 264.48 105.47 C265.51 103.3 266.52 101.13 267.53 98.95 C270.75 92.12 274.45 86.03 279 80 C280.07 78.58 280.07 78.58 281.15 77.13 C288.36 68.82 296.93 63.68 307.9 62.62 C317.65 62.18 325.68 63.11 333.2 69.73 C342.31 78.25 342.31 78.25 344 85 C341.3 86.35 339.92 85.63 337 85 C328.85 84.12 322.77 85.29 316 90 C302.55 100.94 295.63 123.17 293.29 139.71 C292.91 143.99 292.71 148.26 292.62 152.56 C292.6 153.35 292.57 154.14 292.55 154.95 C292.49 157.46 292.49 157.46 293 161 C294.85 163.08 294.85 163.08 297 164 C312.23 157.61 321.91 129.2 327.85 114.97 C330.85 107.46 332.9 100.02 334 92 C342.25 91.37 349.34 92.4 356.04 97.58 C360.93 102.21 364.76 106.87 365.29 113.78 C365.15 121.34 363.17 128.76 361.56 136.12 C359.44 145.91 358.61 154.96 359 165 C386.56 141.96 403.98 105.89 415.81 72.56 C416.1 71.75 416.39 70.93 416.69 70.09 C418.53 64.78 419.87 59.5 421 54 C441.73 57.1 441.73 57.1 447.81 63.19 C449.76 65.9 450.33 67.73 450.06 71.06 C449.52 73.73 448.91 76.37 448.25 79.01 C446.14 87.84 445.6 96.07 445.75 105.12 C445.76 106.48 445.77 107.83 445.78 109.19 C445.89 119.81 446.29 130.41 447 141 C446.34 141 445.68 141 445 141 C445.66 141.66 446.32 142.32 447 143 C453.54 130.05 458.46 116.77 463 103 C469.44 103.49 469.44 103.49 471.96 105.8 C474.41 110.97 471.47 116.79 469.65 121.87 C461.16 144.34 446.9 164.57 424.58 174.97 C413.36 179.45 401.13 181.37 389.62 176.88 C384.59 174.52 380.22 171.61 376 168 C375.48 168.47 374.96 168.94 374.43 169.43 C367.98 175.18 363.98 178.66 355.05 178.42 C347.54 177.38 340.6 174.09 335 169 C335 168.34 335 167.68 335 167 C334.01 166.67 333.02 166.34 332 166 C330.9 164.03 330.9 164.03 329.94 161.5 C329.46 160.28 329.46 160.28 328.96 159.03 C327.71 155.07 326.85 151.06 326 147 C325.71 147.49 325.43 147.99 325.13 148.49 C310.55 173.45 310.55 173.45 301.88 177.12 C292.47 179.25 285.2 176.81 276.88 172.31 C267.23 164.55 261.24 157 258 145 C257.26 146.25 257.26 146.25 256.5 147.53 C241.04 173.13 241.04 173.13 231 177 C221.89 177.87 213.69 172.29 206.75 167 C201.51 162.2 198.68 155.47 196 149 C196 148.34 196 147.68 196 147 C192.14 148.49 190.64 150.61 188.38 154 C179.77 166.11 168.72 176.13 154 180 C139.04 181.46 126.44 178.54 114.4 169.1 C106.24 161.96 100.49 153.62 98 143 C97.68 143.56 97.37 144.12 97.04 144.7 C80.32 173.43 80.32 173.43 69 177 C57.84 176.62 49.54 171.84 41.72 164.11 C37.64 159.72 35.2 154.52 33 149 C32.59 149.68 32.17 150.36 31.75 151.05 C25.23 161.56 18.43 172.33 7 178 C-0.33 179.29 -7.83 175.7 -14 172 C-24.67 164.02 -29.23 155.17 -34 143 C-34.62 143.82 -35.23 144.64 -35.87 145.49 C-59.61 176.88 -59.61 176.88 -77 180 C-90.51 181.48 -105.25 177.85 -116.19 169.54 C-116.79 169.03 -117.38 168.52 -118 168 C-118.62 167.5 -119.24 167 -119.88 166.49 C-127.6 159.61 -132.26 149.04 -133.2 138.81 C-133.3 136.49 -133.33 134.19 -133.31 131.88 C-133.31 131.05 -133.3 130.22 -133.3 129.36 C-132.94 110.53 -125.9 90.73 -112.94 76.81 C-109.26 73.37 -105.31 70.59 -101 68 C-100.29 67.56 -99.57 67.13 -98.84 66.68 C-89.8 62.13 -77.37 62.61 -67.66 64.73 C-62.74 66.54 -59.39 68.95 -56 73 C-55.26 73.75 -55.26 73.75 -54.51 74.52 C-48.46 80.92 -45.81 87.76 -45.5 96.56 C-45.86 106.5 -49.91 113.2 -57 120 C-63.53 125.37 -69.83 125.44 -78 125 C-83.8 124.18 -89.41 122.7 -95 121 C-95.48 122.39 -95.96 123.79 -96.44 125.19 C-96.7 125.96 -96.97 126.74 -97.25 127.54 C-100.16 137.03 -101.55 151.41 -97 160.5 C-94.14 164.49 -90.69 166.66 -86 168 C-78.45 169.24 -73.14 166.31 -67 162 C-64.46 159.68 -62.09 157.3 -59.78 154.76 C-58 153 -58 153 -56 153 C-55.74 152.42 -55.48 151.84 -55.22 151.24 C-53.9 148.81 -52.41 147.18 -50.5 145.19 C-21.44 112.93 -12.9 67.89 -3 27 C-2.79 26.14 -2.57 25.29 -2.35 24.4 C-1.07 19.08 -0.59 13.9 -0.38 8.44 C-0.32 7.21 -0.32 7.21 -0.26 5.96 C-0.16 3.97 -0.08 1.99 0 0 Z " fill="#43A891" transform="translate(567,713)"/>
<path d="M0 0 C1.11 -0.01 1.11 -0.01 2.24 -0.03 C22.83 -0.25 41.09 0.58 60.21 9.24 C61.1 9.61 62 9.98 62.92 10.36 C79.6 18.19 90.89 34.54 97.26 51.23 C104.04 70.11 103.18 92.25 97.21 111.24 C96.99 111.92 96.78 112.6 96.56 113.31 C91.42 129.09 83.64 142.4 73.21 155.24 C72.66 156.02 72.11 156.8 71.54 157.6 C71.1 158.14 70.66 158.68 70.21 159.24 C69.55 159.24 68.89 159.24 68.21 159.24 C68 159.8 67.78 160.36 67.57 160.94 C65.75 164.01 63.27 165.88 60.46 167.99 C59.88 168.42 59.3 168.86 58.71 169.31 C47.4 177.65 35.61 183.19 22.21 187.24 C20.89 187.64 20.89 187.64 19.54 188.05 C7.5 191.03 -5.57 190.42 -16.79 185.24 C-18.79 184.56 -20.79 183.89 -22.79 183.24 C-22.46 183.94 -22.13 184.64 -21.79 185.36 C-20.7 188.5 -20.64 190.94 -20.79 194.24 C-25.5 196.82 -29.74 196.56 -34.79 195.24 C-39.84 192.82 -44.72 189.92 -46.85 184.59 C-51.07 169.58 -45.81 153.26 -42.36 138.61 C-41.8 136.2 -41.25 133.78 -40.7 131.37 C-39.33 125.4 -37.94 119.44 -36.55 113.48 C-35.47 108.85 -34.41 104.22 -33.34 99.58 C-32.27 94.9 -31.19 90.22 -30.1 85.54 C-28.29 77.8 -26.52 70.05 -24.83 62.28 C-23.94 58.18 -23.04 54.08 -22.14 49.99 C-21.7 48 -21.27 46.02 -20.85 44.03 C-20.27 41.28 -19.66 38.53 -19.05 35.79 C-18.89 34.96 -18.72 34.14 -18.54 33.29 C-17.8 30.02 -17.22 27.69 -14.87 25.23 C-11.69 23.71 -8.85 23.84 -5.36 23.86 C-4.06 23.86 -2.76 23.85 -1.42 23.84 C3.55 24.39 6.05 25.98 9.39 29.61 C14.63 37.19 13.98 45.32 12.59 54.13 C11.76 58.48 10.77 62.8 9.77 67.11 C9.41 68.73 9.05 70.34 8.69 71.95 C7.74 76.19 6.77 80.43 5.8 84.66 C5.21 87.22 4.63 89.79 4.04 92.36 C-2.4 120.66 -2.4 120.66 -5.73 134.11 C-6.02 135.28 -6.31 136.44 -6.6 137.65 C-7.13 139.76 -7.66 141.87 -8.21 143.98 C-8.43 144.9 -8.66 145.81 -8.89 146.75 C-9.09 147.53 -9.29 148.31 -9.5 149.11 C-9.83 151.5 -9.65 152.99 -8.79 155.24 C-3.29 159.52 3.6 158.9 10.21 158.24 C26.33 154.85 39.98 143.85 49.02 130.38 C61.77 110.58 70.52 85.89 66.71 62.12 C63.69 50.02 56.94 37.18 46.16 30.32 C27.17 19.78 7.23 20.12 -13.79 22.24 C-13.79 22.9 -13.79 23.56 -13.79 24.24 C-14.66 24.35 -15.53 24.46 -16.43 24.57 C-28.73 27 -39.17 35.33 -46.29 45.32 C-50.35 53.2 -51.32 60.9 -51.23 69.68 C-51.22 70.69 -51.21 71.71 -51.21 72.75 C-50.93 85.13 -46.74 93.14 -39.79 103.24 C-44.98 106.68 -48.7 107.14 -54.79 106.24 C-63.89 103.46 -71.5 99.35 -76.79 91.24 C-83.92 74.44 -83.07 58.28 -76.34 41.48 C-73.82 36.19 -70.53 31.73 -66.79 27.24 C-66.27 26.6 -65.75 25.97 -65.21 25.32 C-52.07 10.85 -32.39 4.63 -13.79 1.24 C-12.88 1.06 -11.97 0.89 -11.03 0.71 C-7.34 0.17 -3.72 0.04 0 0 Z " fill="#43A891" transform="translate(327.79296875,701.76171875)"/>
<path d="M0 0 C14.08 9.91 19.34 23.02 24.61 38.84 C25.52 38.62 26.43 38.41 27.36 38.18 C45.23 34.1 45.23 34.1 53.82 37.65 C57.19 39.89 58.86 43.29 60.61 46.84 C60.94 47.5 61.27 48.16 61.61 48.84 C62.16 55.22 61.34 59.57 57.61 64.84 C50.39 72.95 50.39 72.95 46.61 74.84 C47.53 75.07 48.45 75.3 49.4 75.54 C78.26 82.97 78.26 82.97 83.55 90.65 C84.9 94.7 84.92 96.76 83.61 100.84 C78.28 107.82 68.95 110.47 60.61 111.84 C48.73 112.96 39.77 110.28 30.3 103.03 C25.94 99.33 22.25 95.24 18.61 90.84 C17.95 90.18 17.29 89.52 16.61 88.84 C16.24 89.46 15.86 90.07 15.47 90.71 C7.43 103.08 -4.65 112.07 -19.15 115.46 C-39.05 118.85 -56.88 113.93 -73.39 102.84 C-86.31 93.18 -94.72 79.65 -97.11 63.61 C-98.95 45.43 -94.35 29.3 -83.39 14.84 C-82.75 13.95 -82.11 13.07 -81.45 12.15 C-74.07 3.88 -65.02 -2.88 -54.39 -6.16 C-53.62 -6.44 -52.86 -6.72 -52.07 -7 C-35 -12.63 -15 -9.6 0 0 Z " fill="#E42729" transform="translate(770.38671875,305.16015625)"/>
<path d="M0 0 C4.83 0.63 8.71 2.63 13 4.81 C13.7 5.16 14.4 5.5 15.12 5.85 C21.78 9.2 27.18 12.77 30 20 C30.87 24.5 30.97 26.47 28.52 30.33 C24.03 35.73 19.3 39.06 13 42 C12.08 42.47 11.16 42.94 10.21 43.42 C-31.08 63.72 -82.85 66.78 -128 71 C-128.7 71.07 -129.4 71.13 -130.11 71.2 C-139.4 72.05 -148.69 72.58 -158 73 C-158.91 73.04 -159.81 73.09 -160.75 73.13 C-217.96 75.82 -275.82 77.07 -333 73 C-334.1 72.92 -334.1 72.92 -335.22 72.85 C-460.63 64.1 -460.63 64.1 -500 40 C-501.19 39.28 -501.19 39.28 -502.39 38.54 C-505.28 36.48 -506.79 35.2 -507.41 31.62 C-507.43 29.37 -507.31 27.24 -507 25 C-505.14 24.37 -505.14 24.37 -503 24 C-500.69 26.12 -500.69 26.12 -498 29 C-474.52 49.42 -427.32 45.24 -398.36 45.94 C-395.88 46 -393.4 46.07 -390.92 46.14 C-293.4 48.72 -194.2 50.31 -5.1 18.35 C-0.18 13.25 -0.08 8.92 0.06 2 C0.03 1.01 0.03 1.01 0 0 Z " fill="#542A1C" transform="translate(888,601)"/>
<path d="M0 0 C3.3 2.67 5.64 4.93 7 9 C7.05 10.98 7.04 12.97 6.99 14.95 C6.97 16.72 6.97 16.72 6.94 18.52 C6.9 20.99 6.85 23.46 6.79 25.93 C6.71 32.47 6.83 37.24 10 43 C10.33 43.99 10.66 44.98 11 46 C11.68 46.08 12.36 46.16 13.06 46.25 C16.26 47.07 18.49 48.39 21.29 50.08 C23.47 51.25 25.55 51.7 28 52 C28 52.33 28 52.66 28 53 C-43.61 53 -115.22 53 -189 53 C-187.02 52.5 -187.02 52.5 -185 52 C-185 51.34 -185 50.68 -185 50 C-182.83 48.41 -180.55 47.04 -178.26 45.63 C-174.6 42.99 -172.82 40.42 -172 36 C-172.02 34.27 -172.1 32.55 -172.23 30.82 C-172.29 29.83 -172.35 28.84 -172.41 27.81 C-172.55 25.74 -172.7 23.67 -172.86 21.6 C-173.22 15.45 -172.98 11.43 -170 6 C-169.61 5.26 -169.22 4.51 -168.81 3.75 C-164.98 0.05 -159.91 -1.17 -154.69 -1.44 C-145.47 -1.06 -136.76 3.89 -128.48 7.63 C-120.61 11.15 -111.59 13.22 -103.09 10.36 C-100.03 9.03 -97.17 7.46 -94.25 5.82 C-85.67 1.01 -77.14 -1.99 -67.3 0.75 C-63.44 2.26 -59.83 4.04 -56.25 6.12 C-48.22 10.76 -38.36 12.12 -29.25 10.31 C-21.97 8.3 -16 5.51 -10.51 0.27 C-6.78 -2.87 -4.1 -1.85 0 0 Z " fill="#FAFCFC" transform="translate(727,507)"/>
<path d="M0 0 C2.38 0.31 2.38 0.31 5 1 C7 4 7 4 6.8 6.67 C5.85 10.64 4.55 14.41 3.19 18.25 C-2.06 33.68 -4.69 47.67 -4 64 C-2.65 62.86 -2.65 62.86 -2.66 59.81 C-0.88 49.52 8.23 40.27 16.41 34.21 C21.3 31.01 25.32 29.33 31.19 29.11 C33.1 29.11 33.1 29.11 35 28 C35.99 28.99 35.99 28.99 37 30 C36.36 30.32 35.71 30.63 35.05 30.96 C20.45 38.5 5.84 49.54 -1 65 C-1.55 67.7 -1.81 70.24 -2 73 C-1.03 73.27 -0.06 73.54 0.94 73.81 C1.95 74.2 2.96 74.6 4 75 C4.33 75.99 4.66 76.98 5 78 C6.26 78.08 7.52 78.17 8.81 78.25 C16.42 79.15 23.58 80.93 28.94 86.69 C33.19 92.2 36.88 98.53 36.44 105.73 C33.21 122.37 22.17 141.43 8.5 151.46 C-3.78 159 -17.2 161.03 -31.25 157.81 C-40.46 155.19 -50.01 151.08 -55.43 142.82 C-64.76 125.51 -64.29 102.91 -59.26 84.25 C-56.83 77.04 -52.5 72.28 -45.71 68.84 C-35.4 65.64 -25.12 68.11 -15.38 71.75 C-11.28 73.27 -7.28 74.17 -3 75 C-3.78 74.48 -4.56 73.96 -5.36 73.43 C-8.59 70.46 -9.18 68.34 -10.25 64.12 C-10.56 62.93 -10.88 61.74 -11.2 60.51 C-15.01 43.74 -12.88 21.39 -4.41 6.14 C-3.01 4.02 -1.58 1.99 0 0 Z " fill="#E52427" transform="translate(642,171)"/>
<path d="M0 0 C19.13 -0.56 36.95 0.71 52.44 13.31 C62 22.52 68.42 35.12 69.2 48.46 C69.53 75.82 59.48 102.7 40.56 122.56 C29.3 133.26 16.66 139.74 1 139.36 C-3.35 138.84 -5.61 137.77 -9 135 C-10.7 131.22 -9.47 127.97 -8.48 124.1 C-8.31 123.4 -8.13 122.71 -7.95 122 C-7.57 120.48 -7.19 118.97 -6.8 117.46 C-5.74 113.31 -4.71 109.16 -3.69 105.01 C-3.47 104.13 -3.25 103.25 -3.03 102.34 C-0.41 91.72 1.95 81.05 4.31 70.38 C4.62 68.98 4.62 68.98 4.94 67.56 C6.12 62.24 7.28 56.91 8.44 51.59 C8.82 49.84 9.2 48.09 9.58 46.34 C10.15 43.77 10.71 41.19 11.26 38.61 C11.43 37.85 11.6 37.09 11.77 36.3 C13.66 27.45 14.81 18.73 10.17 10.59 C7.34 6.75 4.32 5.02 0 3 C0 2.01 0 1.02 0 0 Z " fill="#FAFCFC" transform="translate(327,722)"/>
<path d="M0 0 C11.28 8.71 17.55 18.64 22 32 C22.93 42.57 23.14 53.49 18 63 C17.49 63.94 16.98 64.88 16.46 65.86 C9.21 78.14 -1.34 85.28 -15 89 C-27.4 91.84 -39.42 89.14 -50.32 82.81 C-61.97 74.94 -70.17 64.92 -73 51 C-74.46 36.2 -69.37 21.86 -60.25 10.25 C-45.82 -5.3 -18.59 -12.41 0 0 Z " fill="#F9FAFA" transform="translate(758,318)"/>
<path d="M0 0 C2.45 2.09 4.24 4.31 6 7 C6.4 7.61 6.8 8.22 7.21 8.84 C11.6 16.45 11.81 25.19 9.78 33.59 C7.08 41.95 2.56 47.46 -5 52 C-8.75 53.37 -12.79 53.33 -16.75 53.56 C-17.45 53.61 -18.14 53.65 -18.86 53.69 C-20.58 53.8 -22.29 53.9 -24 54 C-24 54.99 -24 55.98 -24 57 C-23.01 57.5 -23.01 57.5 -22 58 C-18.2 65.31 -18.09 72.9 -19 81 C-21.22 87.88 -27.1 92.21 -33 96 C-38.45 98.56 -44.25 98.92 -50 97 C-50 96.34 -50 95.68 -50 95 C-50.89 94.77 -51.77 94.55 -52.69 94.31 C-56.46 92.82 -58.39 91.08 -61 88 C-61 87.34 -61 86.68 -61 86 C-59.51 85.5 -59.51 85.5 -58 85 C-57.67 85.99 -57.34 86.98 -57 88 C-52.86 88.21 -52.86 88.21 -49 87 C-48.28 87.5 -47.56 87.99 -46.81 88.5 C-43.05 90.51 -41.07 90.11 -37 89 C-34.41 87.41 -34.41 87.41 -33 85 C-33.14 82.29 -33.14 82.29 -34 80 C-37.15 80.48 -39.81 81.31 -42.69 82.62 C-44.33 83.31 -44.33 83.31 -46 84 C-48 83 -48 83 -48.85 80.5 C-49.11 79.49 -49.36 78.48 -49.62 77.44 C-50.02 75.92 -50.02 75.92 -50.41 74.37 C-50.61 73.59 -50.8 72.81 -51 72 C-53.42 71.37 -53.42 71.37 -56 71 C-57.71 72.38 -57.71 72.38 -59 74 C-59.66 74 -60.32 74 -61 74 C-61.33 74.99 -61.66 75.98 -62 77 C-62.99 76.67 -63.98 76.34 -65 76 C-66.7 64.48 -66.7 64.48 -63 59 C-62.34 58.01 -61.68 57.02 -61 56 C-60.34 56 -59.68 56 -59 56 C-59 55.34 -59 54.68 -59 54 C-52.85 48.96 -45.87 47.6 -38 48 C-38.58 47.4 -39.15 46.8 -39.75 46.19 C-45.33 38.28 -47.26 29.57 -46 20 C-44.36 13.72 -42.03 9.21 -37 5 C-36.47 4.5 -35.95 3.99 -35.41 3.48 C-25.55 -5.71 -11.69 -7.08 0 0 Z " fill="#E42629" transform="translate(504,269)"/>
<path d="M0 0 C6.16 -0.2 11.72 0.49 17.75 1.75 C19.07 2.02 19.07 2.02 20.42 2.3 C37.02 5.84 52.22 11.33 62.01 26.01 C70.47 40.68 71.75 56.52 69 73 C66 74 66 74 62.59 72.38 C61.22 71.59 59.86 70.8 58.5 70 C57.43 69.38 57.43 69.38 56.33 68.75 C47.71 63.73 39.4 58.74 32 52 C31.67 52.33 31.34 52.66 31 53 C38.39 59.55 45.85 65.51 54.24 70.74 C58.9 73.7 58.9 73.7 60 77 C60.99 77.33 61.98 77.66 63 78 C63 78.33 63 78.66 63 79 C48.24 80.41 32.14 74.23 20.63 65.12 C6.79 52.15 0.91 30.43 -0.12 11.9 C-0.23 7.93 -0.17 3.97 0 0 Z " fill="#609E37" transform="translate(555,144)"/>
<path d="M0 0 C5.67 9.96 0.27 22.96 -2.5 33.19 C-3.15 35.6 -3.79 38.01 -4.43 40.42 C-4.82 41.91 -5.22 43.4 -5.63 44.89 C-6.9 49.72 -7.37 53.99 -7 59 C-4.79 61.88 -4.79 61.88 -2 64 C-1 65 0 66 1 67 C-0.41 70.41 -1.73 72.24 -5 74 C-9.65 75.26 -13.58 75.63 -17.94 73.38 C-21.3 70.77 -21.88 69.99 -23 66 C-23.31 62.85 -23.33 59.73 -23.31 56.56 C-23.31 55.68 -23.31 54.8 -23.31 53.88 C-23.22 47.2 -22.31 41.21 -20.56 34.75 C-20 32.02 -20.06 30.58 -21 28 C-23.52 30.52 -24.69 33.39 -26.19 36.56 C-29.8 44 -33.89 51.4 -41 56 C-44.97 56.41 -47.64 56.16 -51 54 C-55.43 46.06 -55.18 34.88 -56 26 C-56.31 26.93 -56.62 27.86 -56.93 28.82 C-57.62 30.86 -58.33 32.91 -59.06 34.94 C-61.06 41.47 -61.07 47.75 -60.94 54.52 C-61 57 -61 57 -62 58 C-65.77 58.36 -68.18 58.47 -71.5 56.56 C-74.48 51.47 -72.05 44.94 -70.65 39.51 C-69.55 35.38 -68.43 31.25 -67.29 27.13 C-66.72 25.07 -66.17 23.01 -65.62 20.95 C-65.28 19.74 -64.95 18.52 -64.6 17.27 C-64 14.02 -64.11 12.14 -65 9 C-65.5 6.5 -65.5 6.5 -66 4 C-60.25 2.32 -53.87 2.13 -48.12 3.88 C-41.59 10.41 -40.35 18.27 -39.63 27.11 C-39.33 30.82 -39.03 33.82 -37 37 C-33.03 30.61 -29.1 24.22 -25.38 17.69 C-18.82 6.44 -13.97 -0.99 0 0 Z " fill="#E4272A" transform="translate(699,915)"/>
<path d="M0 0 C5.57 4.64 8.22 9.9 9.16 17.07 C9.58 28.02 6.77 35.23 -0.31 43.44 C-10.92 52.78 -21.82 56.99 -35.9 57 C-39.88 56.34 -42.14 54.87 -45.31 52.44 C-44.73 44.16 -43.17 36.17 -41.44 28.06 C-41.18 26.81 -40.92 25.55 -40.66 24.25 C-40.4 23.05 -40.15 21.84 -39.88 20.6 C-39.65 19.51 -39.42 18.42 -39.19 17.3 C-38.3 14.4 -37.36 12.66 -35.31 10.44 C-32.33 9.38 -29.46 9.21 -26.31 9.44 C-23.81 10.94 -23.81 10.94 -22.31 13.44 C-20.81 19.64 -21.96 24.33 -23.62 30.31 C-24.08 32.02 -24.53 33.72 -24.99 35.43 C-25.21 36.26 -25.43 37.08 -25.66 37.94 C-26.32 40.45 -26.95 42.97 -27.54 45.51 C-27.72 46.24 -27.89 46.97 -28.07 47.73 C-28.15 48.29 -28.23 48.86 -28.31 49.44 C-27.98 49.77 -27.65 50.1 -27.31 50.44 C-16.93 43.26 -11.05 34.83 -8.31 22.44 C-8.05 17.62 -8.3 13.85 -10.31 9.44 C-12.77 6.65 -12.77 6.65 -15.31 4.44 C-15.81 3.94 -15.81 3.94 -16.31 3.44 C-24.2 2.73 -30.72 2.84 -37.31 7.44 C-38.34 8.14 -39.38 8.84 -40.44 9.56 C-48.13 16.42 -52.18 27.15 -52.81 37.25 C-52.71 40.93 -52.32 41.43 -49.81 44.5 C-48.57 45.46 -48.57 45.46 -47.31 46.44 C-48.31 47.94 -48.31 47.94 -50.31 49.44 C-56.41 50.28 -60.09 48.95 -65.43 46.02 C-68.45 43.48 -69.16 40.74 -69.61 36.89 C-69.67 24.93 -66.41 16.39 -58.31 7.44 C-43.29 -6.13 -17.76 -11.65 0 0 Z " fill="#E42629" transform="translate(529.3125,916.5625)"/>
<path d="M0 0 C4.94 4 8.18 9.68 10.09 15.69 C11.71 32.82 11.71 32.82 6.76 38.99 C6.21 39.55 5.66 40.11 5.09 40.69 C4.45 41.39 3.8 42.08 3.14 42.8 C-3.57 49.41 -10.98 52.76 -20.41 53.19 C-29.75 52.79 -38.13 49.1 -44.91 42.69 C-49.55 36.67 -50.85 29.12 -49.91 21.69 C-47.8 12.7 -42.37 6.67 -35.02 1.31 C-24.86 -4.9 -10.41 -6.08 0 0 Z " fill="#F9FAF9" transform="translate(751.91015625,328.30859375)"/>
<path d="M0 0 C5.75 3.4 8.31 9.82 10.94 15.69 C12.42 22.64 12.11 28.33 8.56 34.62 C4.27 40.51 -0.33 45.75 -7.82 47.04 C-14.3 47.42 -18.42 45.62 -23.44 41.62 C-23.77 41.3 -24.1 40.97 -24.44 40.62 C-24.93 41.8 -25.43 42.98 -25.94 44.19 C-28.39 49.13 -31.97 52.46 -36.44 55.62 C-42.1 57.51 -46.32 56.94 -51.69 54.5 C-54.63 52.88 -56.37 51.71 -58.56 49.12 C-60.19 42.6 -60.68 35.04 -58.31 28.62 C-56.06 25.02 -54 22.95 -50.44 20.62 C-46.88 19.81 -46.88 19.81 -43.44 19.62 C-42.57 19.52 -41.71 19.42 -40.81 19.31 C-37.5 19.75 -35.86 21.41 -33.44 23.62 C-31.78 21.97 -31.96 19.77 -31.62 17.5 C-30.18 9.36 -27.15 4.48 -20.44 -0.38 C-14.18 -2.46 -6.15 -2.54 0 0 Z " fill="#E42629" transform="translate(596.4375,327.375)"/>
<path d="M0 0 C0 2.64 0 5.28 0 8 C-5.94 10.75 -11.91 13.12 -18.11 15.21 C-18.95 15.49 -19.79 15.78 -20.66 16.07 C-23.35 16.99 -26.05 17.9 -28.75 18.81 C-30.61 19.44 -32.47 20.07 -34.33 20.7 C-38.78 22.21 -43.24 23.72 -47.69 25.22 C-50.75 26.25 -53.81 27.29 -56.87 28.33 C-63.75 30.66 -70.62 32.94 -77.62 34.88 C-84.44 36.76 -91.11 39 -97.81 41.25 C-135.05 53.74 -172.67 64.71 -210.5 75.25 C-211.66 75.58 -212.82 75.9 -214.02 76.24 C-216.31 76.88 -218.61 77.51 -220.9 78.15 C-226.61 79.74 -232.29 81.37 -237.96 83.08 C-239.07 83.41 -240.18 83.74 -241.32 84.08 C-243.42 84.71 -245.52 85.35 -247.61 85.99 C-248.54 86.27 -249.47 86.55 -250.43 86.84 C-251.24 87.09 -252.06 87.34 -252.9 87.59 C-255 88 -255 88 -258 87 C-257 85 -257 85 -254 84 C-252.17 83.28 -250.34 82.55 -248.52 81.83 C-236.75 77.17 -224.81 73.1 -212.81 69.06 C-208.84 67.72 -204.87 66.38 -200.89 65.04 C-199.92 64.7 -198.94 64.37 -197.93 64.03 C-190.85 61.64 -183.77 59.2 -176.7 56.75 C-175.79 56.43 -174.87 56.11 -173.93 55.79 C-169.41 54.21 -164.9 52.6 -160.4 50.96 C-155.6 49.21 -150.77 47.54 -145.93 45.91 C-144.27 45.35 -142.62 44.78 -140.96 44.22 C-138.41 43.36 -135.86 42.5 -133.31 41.64 C-130.81 40.79 -128.31 39.94 -125.8 39.09 C-125.05 38.84 -124.3 38.59 -123.53 38.33 C-118.92 36.76 -114.52 34.92 -110.08 32.91 C-107.37 31.72 -104.61 30.84 -101.77 30.01 C-100.66 29.68 -99.55 29.35 -98.4 29 C-96.72 28.51 -96.72 28.51 -95 28 C-92.84 27.33 -90.67 26.66 -88.51 25.99 C-87.41 25.65 -86.31 25.31 -85.17 24.96 C-78.78 22.97 -72.39 20.99 -66 19 C-65.33 18.79 -64.66 18.58 -63.97 18.37 C-47.27 13.17 -30.58 7.94 -13.93 2.59 C-13.07 2.32 -12.2 2.04 -11.31 1.76 C-9.36 1.12 -7.43 0.43 -5.51 -0.28 C-3 -1 -3 -1 0 0 Z " fill="#562C1F" transform="translate(659,359)"/>
<path d="M0 0 C6.39 5.19 10.84 11.29 12.7 19.38 C13.45 27.03 13.46 33.6 9.7 40.38 C9.27 41.74 9.27 41.74 8.83 43.13 C7.33 46.13 5.65 46.84 2.7 48.38 C1.73 49.1 0.76 49.83 -0.23 50.57 C-3.62 52.57 -5.44 52.75 -9.3 52.38 C-9.63 51.39 -9.96 50.4 -10.3 49.38 C-8.32 48.72 -6.34 48.06 -4.3 47.38 C-6.92 47.38 -8.81 47.7 -11.3 48.38 C-9.5 46.49 -7.7 44.92 -5.61 43.32 C-4.85 42.68 -4.08 42.04 -3.3 41.38 C-3.3 40.72 -3.3 40.06 -3.3 39.38 C-5.86 38.32 -5.86 38.32 -9.3 38.38 C-11.73 39.71 -13.88 41.26 -16.11 42.89 C-18.3 44.38 -18.3 44.38 -21.8 45.51 C-22.62 45.8 -23.45 46.09 -24.3 46.38 C-25.27 48.42 -25.27 48.42 -25.3 50.38 C-27.28 49.39 -29.26 48.4 -31.3 47.38 C-31.3 46.39 -31.3 45.4 -31.3 44.38 C-29.66 43.01 -27.99 41.68 -26.3 40.38 C-24.24 37.29 -24.06 36.67 -24.17 33.2 C-24.21 31.94 -24.25 30.68 -24.3 29.38 C-24.96 29.38 -25.62 29.38 -26.3 29.38 C-26.3 28.72 -26.3 28.06 -26.3 27.38 C-30.07 27.89 -31.75 28.59 -34.3 31.38 C-34.96 31.38 -35.62 31.38 -36.3 31.38 C-36.63 32.7 -36.96 34.02 -37.3 35.38 C-38.29 35.38 -39.28 35.38 -40.3 35.38 C-40.96 34.39 -41.62 33.4 -42.3 32.38 C-42.63 32.38 -42.96 32.38 -43.3 32.38 C-43.88 22.29 -42.36 14.02 -35.83 6.07 C-27.36 -3.25 -11.2 -6.96 0 0 Z " fill="#E42629" transform="translate(562.296875,284.6171875)"/>
<path d="M0 0 C4.86 -0.05 9.71 -0.09 14.57 -0.11 C16.22 -0.12 17.87 -0.13 19.52 -0.15 C21.9 -0.18 24.28 -0.19 26.66 -0.2 C27.39 -0.21 28.12 -0.22 28.87 -0.23 C33.61 -0.23 37.52 0.38 42 2 C45.54 6.04 47.44 11.25 47.25 16.62 C46.26 21.89 43.14 25.72 39 29 C36.7 30.14 34.39 31.06 32 32 C32.58 32.99 33.15 33.97 33.75 34.99 C34.5 36.29 35.25 37.58 36 38.88 C36.38 39.53 36.76 40.18 37.16 40.85 C40 45.77 40 45.77 40 48 C42.97 48.99 45.94 49.98 49 51 C46.65 55.71 44.53 56.74 40 59 C34.13 59.59 29.69 58.54 25 55 C21.2 49.05 20.88 41.89 20 35 C16.53 35.5 16.53 35.5 13 36 C12.72 36.99 12.45 37.97 12.16 38.99 C11.79 40.29 11.43 41.58 11.06 42.88 C10.88 43.53 10.7 44.18 10.51 44.85 C9.11 49.77 9.11 49.77 8 52 C6.56 52.05 5.13 52.09 3.69 52.12 C2.89 52.15 2.09 52.17 1.26 52.2 C-1 52 -1 52 -4 50 C-4.48 44.77 -3.53 39.92 -2.4 34.84 C-2.07 33.29 -1.74 31.74 -1.41 30.19 C-0.9 27.77 -0.37 25.36 0.16 22.95 C0.67 20.6 1.17 18.25 1.66 15.9 C1.83 15.18 1.99 14.46 2.16 13.72 C3.05 9.44 3.03 6.88 1 3 C0.67 2.01 0.34 1.02 0 0 Z " fill="#E4272A" transform="translate(758,925)"/>
<path d="M0 0 C4.7 3.86 6.5 9.11 7.44 15 C7.46 17.39 7.43 19.78 7.36 22.17 C7.33 23.57 7.31 24.97 7.28 26.38 C7.24 28.56 7.19 30.74 7.12 32.92 C6.71 44.19 6.71 44.19 11.4 54.28 C12.44 56 12.44 56 12 59.31 C9.13 64.25 9.13 64.25 6.44 66 C1.56 66.65 -3.39 66.92 -7.56 64 C-8.68 60.76 -8.76 57.55 -8.88 54.14 C-8.92 53.03 -8.96 51.91 -9.01 50.76 C-9.05 49.6 -9.08 48.44 -9.12 47.25 C-9.17 46.08 -9.21 44.9 -9.26 43.69 C-9.36 40.79 -9.46 37.9 -9.56 35 C-17.48 35 -25.4 35 -33.56 35 C-34.33 36.92 -35.09 38.84 -35.88 40.81 C-38.52 47.46 -38.52 47.46 -41.56 50 C-43.62 48.62 -43.62 48.62 -45.56 46 C-47.11 36.77 -40.82 27.73 -36.56 20 C-36.04 19.02 -35.52 18.04 -34.98 17.03 C-27.14 3.03 -16.39 -4.6 0 0 Z " fill="#E42629" transform="translate(742.5625,927)"/>
<path d="M0 0 C4.26 3.42 6.52 8.11 7.71 13.37 C8.23 18.54 8.35 23.72 8.31 28.92 C8.31 35.08 8.6 38.65 12.71 43.37 C10.64 46.04 8.98 48.09 5.58 48.84 C1.63 49 -1.05 48.47 -4.73 46.93 C-7.86 43.81 -8.28 41.58 -8.87 37.3 C-9.01 36.66 -9.15 36.03 -9.29 35.37 C-12.55 33.74 -16.15 33.95 -19.73 33.75 C-20.51 33.69 -21.28 33.64 -22.08 33.59 C-25.47 33.39 -28.05 33.29 -31.29 34.37 C-32.73 36.85 -32.73 36.85 -33.92 39.81 C-34.34 40.8 -34.77 41.79 -35.21 42.8 C-35.57 43.65 -35.92 44.5 -36.29 45.37 C-36.62 46.03 -36.95 46.69 -37.29 47.37 C-38.61 47.37 -39.93 47.37 -41.29 47.37 C-43.81 43.59 -43.7 41.86 -43.29 37.37 C-42.38 34.66 -41.14 32.2 -39.79 29.68 C-39.25 28.64 -39.25 28.64 -38.7 27.58 C-25.89 3.41 -25.89 3.41 -15.23 -0.85 C-10.13 -2.2 -4.84 -2.46 0 0 Z " fill="#E42528" transform="translate(581.29296875,925.62890625)"/>
<path d="M0 0 C5.49 1.83 8.15 4.92 11.08 9.8 C13.2 14.88 13.01 21.3 11.09 26.42 C8.53 30.79 5.7 33.95 1 36 C-5.99 37.05 -12.13 36.54 -18.15 32.68 C-22.44 28.78 -23.79 24 -24.38 18.38 C-23.48 10.31 -21.15 6.14 -15 1 C-10.6 -1.2 -4.8 -0.32 0 0 Z " fill="#E52427" transform="translate(502,362)"/>
<path d="M0 0 C4.06 3.34 6.19 6.84 6.89 11.98 C7.68 22.04 3.8 31.01 -2.11 38.98 C-5.93 43 -10.45 46.03 -15.11 48.98 C-14.56 42.71 -13.44 37.07 -11.61 31.05 C-8.03 20.47 -8.03 20.47 -8.98 9.79 C-9.99 7.83 -9.99 7.83 -12.11 6.98 C-14.26 6.97 -14.26 6.97 -16.61 7.23 C-17.8 7.33 -17.8 7.33 -19.02 7.44 C-21.49 7.84 -21.49 7.84 -23.11 10.98 C-23.73 13.38 -24.28 15.75 -24.77 18.17 C-24.91 18.87 -25.06 19.57 -25.21 20.29 C-25.68 22.52 -26.15 24.75 -26.61 26.98 C-27.22 29.92 -27.83 32.86 -28.45 35.8 C-28.59 36.47 -28.73 37.15 -28.87 37.84 C-29.56 41.11 -30.23 43.16 -32.11 45.98 C-32.77 45.98 -33.43 45.98 -34.11 45.98 C-34.19 45.22 -34.27 44.46 -34.36 43.67 C-34.82 40.84 -34.82 40.84 -37.17 39.73 C-39.11 37.98 -39.11 37.98 -39.48 36.15 C-39.81 25.48 -35.67 16.24 -29.11 7.98 C-21.52 0.74 -10.53 -5.07 0 0 Z " fill="#F8F8F8" transform="translate(515.109375,920.015625)"/>
<path d="M0 0 C4.94 4 8.18 9.68 10.09 15.69 C11.71 32.82 11.71 32.82 6.76 38.99 C6.21 39.55 5.66 40.11 5.09 40.69 C4.45 41.39 3.8 42.08 3.14 42.8 C-3.57 49.41 -10.98 52.76 -20.41 53.19 C-29.75 52.79 -38.13 49.1 -44.91 42.69 C-49.55 36.67 -50.85 29.12 -49.91 21.69 C-47.8 12.7 -42.37 6.67 -35.02 1.31 C-24.86 -4.9 -10.41 -6.08 0 0 Z M-43.29 14.19 C-46.9 19.75 -47.61 25.21 -46.91 31.69 C-44.87 38.36 -38.76 43.36 -32.91 46.9 C-27.26 49.13 -21.18 48.06 -15.66 45.94 C-11.76 44.21 -8.26 42.34 -4.91 39.69 C-4.91 39.03 -4.91 38.37 -4.91 37.69 C-4.25 37.69 -3.59 37.69 -2.91 37.69 C2.14 27.61 2.14 27.61 2.09 16.69 C0.45 13.38 -1.41 10.42 -3.91 7.69 C-4.9 7.36 -5.89 7.03 -6.91 6.69 C-7.41 5.21 -7.41 5.21 -7.91 3.69 C-20.71 -2.1 -34.33 4.77 -43.29 14.19 Z " fill="#D43F41" transform="translate(751.91015625,328.30859375)"/>
<path d="M0 0 C6.6 0.16 12.89 0.7 18.11 5.08 C22.06 9.35 24.95 13.37 25.02 19.37 C24.66 24.95 23.26 30.68 20 35.31 C18.35 36.23 18.35 36.23 16 36.31 C13.32 35.54 10.83 34.71 8.25 33.69 C7.54 33.41 6.82 33.13 6.09 32.85 C-6.18 27.97 -6.18 27.97 -9.5 23.12 C-10.86 15.5 -10.26 9.34 -7 2.31 C-4.47 -0.22 -3.51 0.01 0 0 Z " fill="#43A891" transform="translate(795,737.6875)"/>
<path d="M0 0 C18.92 -0.81 18.92 -0.81 26.2 4.65 C29.66 7.97 31.78 10.43 32.2 15.38 C32.31 21.72 31.77 27.23 29 33 C28.34 33.66 27.68 34.32 27 35 C16.17 34.15 6.24 27.81 -1 20 C-2.33 17.33 -2.17 15.23 -2.19 12.25 C-2.2 11.22 -2.22 10.2 -2.23 9.14 C-1.99 5.81 -1.18 3.12 0 0 Z " fill="#43A891" transform="translate(624,737)"/>
<path d="M0 0 C2.38 0.31 2.38 0.31 5 1 C7 4 7 4 6.8 6.67 C5.85 10.64 4.55 14.41 3.19 18.25 C-2.06 33.68 -4.69 47.67 -4 64 C-2.65 62.86 -2.65 62.86 -2.66 59.81 C-0.88 49.52 8.23 40.27 16.41 34.21 C21.3 31.01 25.32 29.33 31.19 29.11 C33.1 29.11 33.1 29.11 35 28 C35.66 28.66 36.32 29.32 37 30 C36.36 30.32 35.71 30.63 35.05 30.96 C21.88 37.76 11.78 46.13 3 58 C2.5 58.66 2.01 59.32 1.5 60 C-1.51 64.53 -1.43 68.79 -1 74 C-1.99 74.5 -1.99 74.5 -3 75 C-7.62 71.92 -8.9 69.46 -10.25 64.12 C-10.56 62.93 -10.88 61.74 -11.2 60.51 C-15.01 43.74 -12.88 21.39 -4.41 6.14 C-3.01 4.02 -1.58 1.99 0 0 Z " fill="#562C1E" transform="translate(642,171)"/>
<path d="M0 0 C4.95 0 9.9 0 15 0 C15 7.88 15 7.88 14.2 11.26 C14.02 11.99 13.85 12.71 13.68 13.46 C13.49 14.2 13.31 14.93 13.12 15.69 C12.86 16.81 12.86 16.81 12.6 17.95 C11.74 21.53 10.88 24.79 9 28 C9.66 28 10.32 28 11 28 C11.33 28.99 11.66 29.98 12 31 C11.34 31 10.68 31 10 31 C10 31.66 10 32.32 10 33 C9.01 33.5 9.01 33.5 8 34 C7.23 36.29 6.56 38.61 5.94 40.94 C4.07 47.85 4.07 47.85 3 50 C1.56 50.05 0.13 50.09 -1.31 50.12 C-2.11 50.15 -2.91 50.17 -3.74 50.2 C-6 50 -6 50 -9 48 C-9.48 42.71 -8.55 37.81 -7.47 32.66 C-7.31 31.89 -7.16 31.13 -7 30.34 C-6.5 27.91 -6 25.49 -5.5 23.06 C-5.16 21.41 -4.82 19.75 -4.49 18.1 C-3.67 14.06 -2.84 10.03 -2 6 C-1.34 6.33 -0.68 6.66 0 7 C0 4.69 0 2.38 0 0 Z " fill="#E4272A" transform="translate(763,927)"/>
<path d="M0 0 C2.12 -0.03 4.25 -0.05 6.38 -0.06 C7.56 -0.07 8.74 -0.09 9.96 -0.1 C13 0 13 0 15 1 C17.91 9.73 14.98 19.03 13.06 27.72 C12.56 30.02 12.07 32.32 11.58 34.62 C11.26 36.08 10.95 37.54 10.63 39 C10.48 39.69 10.33 40.38 10.18 41.09 C9.12 45.88 9.12 45.88 8 47 C5.81 47.07 3.62 47.08 1.44 47.06 C-0.36 47.05 -0.36 47.05 -2.19 47.04 C-3.12 47.02 -4.05 47.01 -5 47 C-6.91 44.27 -7.01 43.04 -6.58 39.68 C-6.29 38.36 -5.98 37.05 -5.66 35.74 C-5.51 35.04 -5.35 34.34 -5.18 33.61 C-4.68 31.36 -4.15 29.12 -3.62 26.88 C-0.49 13.6 -0.49 13.6 0 0 Z " fill="#E42629" transform="translate(814,925)"/>
<path d="M0 0 C4.8 3.44 7.23 7.85 8.39 13.63 C8.7 18.33 8.16 21.35 5.19 25.06 C1.37 28.84 -1.53 29.88 -6.88 30.5 C-11.91 30.38 -16.19 28.12 -20.12 25.06 C-22.01 19.42 -21.91 13.28 -19.94 7.69 C-14.62 -0.01 -9.27 -2.78 0 0 Z " fill="#E42629" transform="translate(512.125,327.9375)"/>
<path d="M0 0 C3.12 2.11 3.88 3.56 4.88 7.19 C5.02 11.74 4.2 15.63 3 20 C2.34 20 1.68 20 1 20 C0.73 21.22 0.46 22.43 0.19 23.69 C-3.18 38.84 -3.18 38.84 -5 46 C-6.58 46.08 -8.17 46.14 -9.75 46.19 C-11.07 46.24 -11.07 46.24 -12.42 46.29 C-15.55 45.94 -16.74 45.16 -19 43 C-19.27 41.02 -19.27 41.02 -18.93 38.71 C-18.74 37.38 -18.74 37.38 -18.54 36.02 C-17.5 30.2 -16.36 24.41 -15.12 18.62 C-14.74 16.74 -14.74 16.74 -14.35 14.82 C-14.09 13.61 -13.83 12.41 -13.57 11.16 C-13.34 10.08 -13.11 8.99 -12.88 7.87 C-11.98 4.94 -11.1 3.21 -9 1 C-5.68 -0.11 -3.47 -0.35 0 0 Z " fill="#E52528" transform="translate(503,926)"/>
<path d="M0 0 C0 0.99 0 1.98 0 3 C-41.14 3.02 -82.29 3.04 -123.43 3.05 C-128.37 3.05 -133.31 3.05 -138.24 3.05 C-139.23 3.06 -140.21 3.06 -141.22 3.06 C-154.9 3.06 -168.57 3.07 -182.24 3.07 C-205.87 3.09 -229.5 3.1 -253.12 3.1 C-254.05 3.1 -254.97 3.1 -255.93 3.1 C-323.62 3.1 -391.31 2.76 -459 2 C-459 1.67 -459 1.34 -459 1 C-401.97 0.87 -344.94 0.75 -287.91 0.62 C-281.18 0.6 -274.45 0.59 -267.72 0.57 C-267.05 0.57 -266.38 0.57 -265.69 0.57 C-243.98 0.52 -222.27 0.47 -200.56 0.42 C-177.62 0.37 -154.68 0.32 -131.74 0.27 C-117.99 0.24 -104.25 0.21 -90.51 0.18 C-81.09 0.16 -71.67 0.13 -62.24 0.11 C-56.81 0.1 -51.37 0.09 -45.93 0.08 C-40.95 0.07 -35.97 0.06 -31 0.04 C-29.2 0.04 -27.4 0.04 -25.6 0.03 C-17.06 0.01 -8.53 -0.01 0 0 Z " fill="#E6E3DE" transform="translate(873,472)"/>
<path d="M0 0 C0.66 0 1.32 0 2 0 C7.97 35.48 7.97 35.48 7 52 C6.34 52 5.68 52 5 52 C5 51.34 5 50.68 5 50 C3.51 49.5 3.51 49.5 2 49 C1.59 48.28 1.17 47.56 0.75 46.81 C-3.05 40.71 -8.38 37.43 -15 35 C-15 30.94 -14.68 29.96 -12.73 26.62 C-12.02 25.37 -12.02 25.37 -11.29 24.09 C-10.78 23.22 -10.27 22.34 -9.75 21.44 C-5.79 14.45 -2.22 7.76 0 0 Z " fill="#F7FAF9" transform="translate(982,815)"/>
<path d="M0 0 C3.01 4.51 2.55 8.71 2 14 C1.08 17.6 -0.24 20.73 -2 24 C-2.38 24.72 -2.76 25.44 -3.14 26.18 C-4.62 28.4 -5.7 29.63 -8 31 C-13.28 31.89 -18.76 32.44 -23.4 29.46 C-23.93 28.98 -24.46 28.5 -25 28 C-23.72 23.69 -22.08 20.2 -19.62 16.44 C-19.04 15.53 -18.45 14.62 -17.85 13.68 C-14.94 9.47 -12.1 5.79 -8 2.69 C-7.34 2.18 -6.68 1.66 -6 1.14 C-4 0 -4 0 0 0 Z " fill="#F9FCFB" transform="translate(500,796)"/>
<path d="M0 0 C0.9 0.31 0.9 0.31 1.81 0.62 C1.81 1.29 1.81 1.94 1.81 2.62 C2.47 2.62 3.13 2.62 3.81 2.62 C5.29 5.58 5.25 7.33 4.81 10.62 C3.1 13.25 1.17 15.56 -1.19 17.62 C-1.85 17.62 -2.51 17.62 -3.19 17.62 C-3.19 18.62 -3.19 19.61 -3.19 20.62 C-1.21 21.29 0.77 21.94 2.81 22.62 C2.89 22.01 2.97 21.39 3.05 20.75 C3.81 18.62 3.81 18.62 5.67 17.5 C6.44 17.21 7.21 16.92 8 16.62 C11.11 15.39 13.24 14.31 16 12.31 C18.81 10.62 18.81 10.62 22.19 10.88 C23.05 11.12 23.92 11.37 24.81 11.62 C24.81 12.94 24.81 14.26 24.81 15.62 C22.31 17.88 22.31 17.88 19.81 19.62 C21.13 19.3 22.45 18.96 23.81 18.62 C23.81 19.29 23.81 19.94 23.81 20.62 C21.83 21.29 19.85 21.94 17.81 22.62 C19.07 25.14 20.31 25.5 22.81 26.62 C14.84 29.28 5.55 28.42 -2 24.89 C-7.76 21.56 -11.8 17.98 -14.19 11.62 C-14.88 8.25 -14.88 8.25 -15.19 5.62 C-14.2 5.62 -13.21 5.62 -12.19 5.62 C-12.19 6.62 -12.19 7.61 -12.19 8.62 C-11.2 8.3 -10.21 7.96 -9.19 7.62 C-8.86 6.63 -8.53 5.64 -8.19 4.62 C-7.53 4.62 -6.87 4.62 -6.19 4.62 C-5.86 3.63 -5.53 2.64 -5.19 1.62 C-2.19 -0.38 -2.19 -0.38 0 0 Z " fill="#D33F41" transform="translate(534.1875,311.375)"/>
<path d="M0 0 C9.3 0.31 17.34 1.97 26.12 5 C27.79 5.55 27.79 5.55 29.48 6.12 C32.33 7.06 35.16 8.03 38 9 C38.99 9.33 39.98 9.66 41 10 C41 10.66 41 11.32 41 12 C41.66 12 42.32 12 43 12 C42 15 42 15 39.41 16.61 C26.34 22.78 26.34 22.78 19 21 C11.19 17.7 5.66 10.88 1 4 C0.63 2.68 0.29 1.34 0 0 Z " fill="#F7F8F7" transform="translate(798,387)"/>
<path d="M0 0 C2.23 -0.08 4.46 -0.14 6.69 -0.19 C8.55 -0.24 8.55 -0.24 10.45 -0.29 C14.98 0.08 17.43 1.39 20.58 4.62 C24.56 10.49 25.16 16.04 24 23 C22.32 27.39 19.77 30.25 16.44 33.5 C10.52 36.08 4.53 36.09 -1.64 34.19 C-6.88 31.69 -9.44 28.72 -11.41 23.28 C-12.25 20.02 -12.46 17.34 -12 14 C-10.5 11.56 -10.5 11.56 -9 10 C-9 11.65 -9 13.3 -9 15 C-8.01 14.67 -7.02 14.34 -6 14 C-2.62 13.5 -2.62 13.5 1 14 C3.16 16.06 4.69 18.33 6 21 C6 21.66 6 22.32 6 23 C6.94 22.97 6.94 22.97 7.9 22.93 C8.72 22.91 9.53 22.89 10.38 22.88 C11.59 22.84 11.59 22.84 12.84 22.8 C15 23 15 23 17 25 C17 25.99 17 26.98 17 28 C20.99 24.56 21.88 21.24 22.38 16.06 C22.24 11.73 20.91 9.28 18 6 C12.29 1.69 7.04 1.25 0 1 C0 0.67 0 0.34 0 0 Z " fill="#D33E40" transform="translate(490,363)"/>
<path d="M0 0 C2.78 2.17 2.95 3.73 3.56 7.19 C2.77 12.55 0.67 16.03 -3 20 C-6.18 22.34 -9.51 24.17 -13 26 C-13.89 26.55 -14.77 27.1 -15.68 27.66 C-18 29 -18 29 -20 29 C-20.87 25.52 -20.9 23.42 -20 20 C-19.86 18.63 -19.76 17.26 -19.68 15.89 C-19.62 14.76 -19.62 14.76 -19.56 13.61 C-19.52 12.83 -19.48 12.05 -19.44 11.25 C-19.39 10.46 -19.35 9.66 -19.31 8.85 C-19.2 6.9 -19.1 4.95 -19 3 C-6.61 -0.83 -6.61 -0.83 0 0 Z " fill="#F9FAFA" transform="translate(814,350)"/>
<path d="M0 0 C0.66 0 1.32 0 2 0 C2.33 2.64 2.66 5.28 3 8 C3.66 8 4.32 8 5 8 C6.18 6.79 6.18 6.79 7.38 5.56 C10.92 2.1 10.92 2.1 14 2 C17.67 4.44 17.93 5.82 19 10 C19.12 12.88 19.12 12.88 19 15 C23.35 14.53 23.35 14.53 27.06 12.38 C29 11 29 11 31.75 11.31 C32.49 11.54 33.24 11.77 34 12 C34.81 14.19 34.81 14.19 35 17 C32.47 20.48 30.7 21.8 26.56 23 C22.5 23 20.55 21.85 17 20 C15.33 20.32 13.66 20.65 12 21 C9.81 19.56 9.81 19.56 8 18 C7.34 18 6.68 18 6 18 C9.32 22.39 11.8 24.82 17 27 C14 28 14 28 11.62 26.96 C10.76 26.44 9.89 25.91 9 25.38 C8.13 24.87 7.27 24.36 6.38 23.84 C2.71 21 0.69 17.58 0 13 C-0.07 10.75 -0.08 8.5 -0.06 6.25 C-0.05 5.08 -0.04 3.91 -0.04 2.7 C-0.02 1.81 -0.01 0.92 0 0 Z " fill="#D53D3F" transform="translate(437,337)"/>
<path d="M0 0 C2.88 -0.12 2.88 -0.12 6 0 C6.66 0.66 7.32 1.32 8 2 C7.97 4.73 7.44 7.3 7 10 C10.63 10 14.26 10 18 10 C18 11.65 18 13.3 18 15 C18.33 15.33 18.66 15.66 19 16 C19 14.02 19 12.04 19 10 C19.33 10 19.66 10 20 10 C20 12.97 20 15.94 20 19 C21.65 18.34 23.3 17.68 25 17 C20.66 21.58 17.67 24.26 11.25 24.44 C5.49 24.35 1.06 22.06 -3 18 C-3.66 18.66 -4.32 19.32 -5 20 C-4.81 18.99 -4.63 17.98 -4.44 16.94 C-3.83 13.02 -3.83 13.02 -4.56 9.25 C-5 6 -5 6 -3 3 C-2.34 3 -1.68 3 -1 3 C-0.67 2.01 -0.34 1.02 0 0 Z " fill="#D43E40" transform="translate(575,350)"/>
<path d="M0 0 C6.04 3.36 9.42 8.5 12.03 14.75 C13.95 21.58 13.67 29.86 10.75 36.31 C4.17 45.83 -4.98 51.19 -16.25 53.31 C-16.25 52.32 -16.25 51.33 -16.25 50.31 C-15.34 50.21 -14.43 50.11 -13.5 50 C-10.09 49.28 -8.92 48.42 -6.25 46.31 C-5.6 45.9 -4.95 45.48 -4.29 45.06 C1.49 41.23 4.68 36.95 6.75 30.31 C7.57 25.05 7.6 20.22 5.06 15.44 C2.82 12.41 0.52 9.87 -2.25 7.31 C-2.64 6.77 -3.02 6.24 -3.42 5.68 C-6.32 3.51 -9.47 4 -12.94 4.12 C-13.64 4.14 -14.34 4.15 -15.06 4.17 C-16.79 4.2 -18.52 4.26 -20.25 4.31 C-20.25 3.32 -20.25 2.33 -20.25 1.31 C-14.19 -4.12 -7.04 -3.21 0 0 Z " fill="#5D3222" transform="translate(872.25,416.6875)"/>
<path d="M0 0 C-0.66 1.65 -1.32 3.3 -2 5 C-1.34 5.33 -0.68 5.66 0 6 C-0.9 6.05 -0.9 6.05 -1.83 6.09 C-4.81 6.59 -6.55 7.2 -9 9 C-10.89 13.35 -11.68 17.85 -12.52 22.48 C-13.42 27.19 -14.61 31.84 -15.75 36.5 C-16.18 38.32 -16.62 40.15 -17.05 41.97 C-17.23 42.75 -17.41 43.52 -17.6 44.33 C-17.74 44.88 -17.87 45.43 -18 46 C-18.99 46 -19.98 46 -21 46 C-21.08 45.24 -21.17 44.47 -21.25 43.69 C-21.71 40.85 -21.71 40.85 -24.06 39.75 C-26 38 -26 38 -26.37 36.17 C-26.7 25.51 -22.58 16.24 -16 8 C-11 3.36 -6.95 -0.18 0 0 Z " fill="#F7F5F4" transform="translate(502,920)"/>
<path d="M0 0 C3.68 1.02 4.93 1.91 7.31 5 C9 8 9 8 9 10 C9.66 10 10.32 10 11 10 C13.56 15.12 12.64 23.36 12 29 C10.88 32.31 9.38 34.47 7 37 C6.55 37.56 6.11 38.12 5.65 38.7 C1.89 43.04 -2.44 44.79 -8 46 C-8.99 46 -9.98 46 -11 46 C-11.5 44.51 -11.5 44.51 -12 43 C-12.33 42.34 -12.66 41.68 -13 41 C-12.36 40.66 -11.72 40.32 -11.07 39.98 C-10.24 39.53 -9.41 39.08 -8.56 38.62 C-7.74 38.18 -6.92 37.74 -6.07 37.29 C-3.87 36.17 -3.87 36.17 -3 34 C-2.34 34 -1.68 34 -1 34 C3.69 21.25 3.69 21.25 3 8 C2.07 5.98 2.07 5.98 0.94 4.19 C0.3 3.14 -0.34 2.08 -1 1 C-0.67 0.67 -0.34 0.34 0 0 Z " fill="#E3282B" transform="translate(750,332)"/>
<path d="M0 0 C0.66 0 1.32 0 2 0 C2.33 1.32 2.66 2.64 3 4 C3.66 3.34 4.32 2.68 5 2 C5.99 2 6.98 2 8 2 C9.03 3.65 10.03 5.32 11 7 C11.66 7 12.32 7 13 7 C13.33 9.31 13.66 11.62 14 14 C15.22 13.5 16.43 13.01 17.69 12.5 C20.9 11.3 23.54 10.39 27 11 C27.99 12.49 27.99 12.49 29 14 C29.66 14 30.32 14 31 14 C31.33 13.01 31.66 12.02 32 11 C32.5 11.99 32.5 11.99 33 13 C28.26 18.9 24.57 23.3 16.75 24.5 C10.52 23.67 4.99 21.35 0.88 16.5 C-0.49 11.03 -0.22 5.61 0 0 Z " fill="#D34042" transform="translate(537,360)"/>
<path d="M0 0 C2.2 1.18 3.5 2.26 4.37 4.64 C4.87 7.68 4.84 10.61 4.81 13.69 C4.8 14.86 4.79 16.03 4.79 17.23 C4.77 18.13 4.76 19.02 4.75 19.94 C1.44 21.59 -2.24 21.04 -5.88 21 C-6.68 21 -7.48 20.99 -8.3 20.99 C-10.29 20.97 -12.27 20.96 -14.25 20.94 C-15.22 17.87 -15.36 17.2 -14.03 14.1 C-5.56 -0.15 -5.56 -0.15 0 0 Z " fill="#F8F9F9" transform="translate(728.25,934.0625)"/>
<path d="M0 0 C0.99 0.66 1.98 1.32 3 2 C2.36 2.32 1.71 2.63 1.05 2.96 C-12.12 9.76 -22.22 18.13 -31 30 C-31.5 30.66 -31.99 31.32 -32.5 32 C-35.51 36.53 -35.43 40.79 -35 46 C-35.99 46.5 -35.99 46.5 -37 47 C-38.32 45.68 -39.64 44.36 -41 43 C-39.25 37.25 -39.25 37.25 -37 35 C-36.8 33.39 -36.8 33.39 -36.6 31.75 C-34.96 21.51 -25.7 12.22 -17.59 6.21 C-11.97 2.54 -7.67 1.32 -1 1 C-0.67 0.67 -0.34 0.34 0 0 Z " fill="#572E20" transform="translate(676,199)"/>
<path d="M0 0 C5 0.74 7.46 3.07 10.5 6.99 C12.36 10.26 12.45 12.53 11.75 16.19 C10.62 18.62 10.62 18.62 8.75 20.19 C5.48 20.95 3.58 20.65 0.65 19.01 C-3.23 16.28 -6.28 14.04 -7.25 9.19 C-7.78 3.89 -7.78 3.89 -6 1.52 C-3.8 -0.16 -2.74 -0.21 0 0 Z " fill="#F9FBFB" transform="translate(962.25,860.8125)"/>
<path d="M0 0 C0.66 0.35 1.33 0.7 2.01 1.06 C2.89 1.51 3.78 1.97 4.69 2.44 C5.99 3.12 5.99 3.12 7.32 3.81 C9.91 4.96 12.21 5.56 15 6 C15 6.33 15 6.66 15 7 C-56.61 7 -128.22 7 -202 7 C-200.68 6.67 -199.36 6.34 -198 6 C-198 5.34 -198 4.68 -198 4 C-195.03 3.01 -192.06 2.02 -189 1 C-189.99 2.32 -190.98 3.64 -192 5 C-128.31 5 -64.62 5 1 5 C0.01 3.02 0.01 3.02 -1 1 C-0.67 0.67 -0.34 0.34 0 0 Z " fill="#E5E9E4" transform="translate(740,553)"/>
<path d="M0 0 C3.12 -0.19 3.12 -0.19 6 0 C6 0.66 6 1.32 6 2 C6.66 2 7.32 2 8 2 C10.01 6.14 10.48 9.42 10 14 C7.56 18.78 4.73 21.49 0 24 C-2.88 24.25 -2.88 24.25 -5 24 C-6.05 20.86 -5.98 19.97 -5.29 16.88 C-5.03 15.69 -5.03 15.69 -4.76 14.48 C-4.57 13.66 -4.38 12.84 -4.19 12 C-4.01 11.18 -3.83 10.36 -3.65 9.52 C-2.8 5.75 -2.18 3.26 0 0 Z " fill="#F8F8F8" transform="translate(779,930)"/>
<path d="M0 0 C0.99 0.33 1.98 0.66 3 1 C3.09 2.16 3.09 2.16 3.19 3.34 C4.24 12.25 6.83 16.73 13.66 22.38 C20.75 27.21 30.02 25.03 38 24 C37.67 25.32 37.34 26.64 37 28 C40.3 27.01 43.6 26.02 47 25 C42.11 29.89 36.45 31.16 29.62 31.44 C20.22 31.13 11.82 27.46 5 21 C0.16 14.71 -0.31 7.64 0 0 Z " fill="#D24547" transform="translate(702,350)"/>
<path d="M0 0 C0.66 0 1.32 0 2 0 C2.33 1.65 2.66 3.3 3 5 C3.99 5 4.98 5 6 5 C6.33 4.01 6.66 3.02 7 2 C8.5 3.25 8.5 3.25 10 5 C10 6.32 10 7.64 10 9 C11.62 9.05 13.25 9.09 14.88 9.12 C15.78 9.15 16.68 9.17 17.62 9.2 C20.19 9.24 20.19 9.24 22 7 C21.33 9.67 20.67 12.33 20 15 C21.32 15.33 22.64 15.66 24 16 C19.39 18.76 15.32 20.05 10 19 C6.76 17.67 3.77 16.15 1 14 C-0.05 10.85 -0.1 8.61 -0.06 5.31 C-0.05 4.32 -0.04 3.32 -0.04 2.3 C-0.02 1.54 -0.01 0.78 0 0 Z " fill="#D44345" transform="translate(491,339)"/>
<path d="M0 0 C2.38 0.95 3.75 1.63 5.2 3.77 C6.15 6.42 6.49 8.83 6.75 11.62 C6.85 12.59 6.95 13.55 7.05 14.54 C7 17 7 17 5 19 C2.03 19.27 2.03 19.27 -1.5 19.25 C-2.67 19.26 -3.83 19.26 -5.03 19.27 C-8 19 -8 19 -10 17 C-9.81 12.3 -7.25 9.23 -4.44 5.69 C-4.01 5.14 -3.59 4.59 -3.15 4.02 C-2.11 2.67 -1.06 1.34 0 0 Z " fill="#F6F5F4" transform="translate(565,934)"/>
<path d="M0 0 C11.87 -0.99 21.11 4.26 30.24 11.5 C40.35 20.68 45.48 33.05 49 46 C49.56 45.84 50.12 45.67 50.7 45.5 C53.13 44.97 55.27 44.9 57.75 44.94 C58.55 44.95 59.35 44.96 60.17 44.96 C60.78 44.98 61.38 44.99 62 45 C62 45.33 62 45.66 62 46 C57.07 47.97 53.22 48.18 48 48 C45.89 43.36 43.87 38.71 42.06 33.94 C36.48 19.98 26.55 11.16 13 5 C8.76 3.36 4.41 2.11 0 1 C0 0.67 0 0.34 0 0 Z " fill="#D33E40" transform="translate(746,298)"/>
<path d="M0 0 C0.66 0.99 1.32 1.98 2 3 C2.66 3 3.32 3 4 3 C4.33 2.01 4.66 1.02 5 0 C5.33 0.66 5.66 1.32 6 2 C-1.31 11.1 -1.31 11.1 -7 13 C-10.88 13.19 -10.88 13.19 -14 13 C-14.94 10.94 -14.94 10.94 -15 8 C-11.02 2.68 -6.91 -0.71 0 0 Z " fill="#D54C4D" transform="translate(564,371)"/>
<path d="M0 0 C0.33 0.66 0.66 1.32 1 2 C-1.51 6.19 -3.38 9.19 -8 11 C-11.35 11.23 -14.65 11.18 -18 11 C-18.66 9.68 -19.32 8.36 -20 7 C-5.91 -2.26 -5.91 -2.26 0 0 Z " fill="#F5F7F5" transform="translate(499,304)"/>
<path d="M0 0 C2.87 0.57 3.86 0.86 6 3 C6.79 9.24 6.49 14.61 3 20 C0.34 18.99 -0.95 18.06 -2.75 15.81 C-4.35 12.22 -4.48 9.91 -4 6 C-2 2.56 -2 2.56 0 0 Z " fill="#F7F6F5" transform="translate(470,290)"/>
<path d="M0 0 C0.99 0.33 1.98 0.66 3 1 C2.78 2.04 2.78 2.04 2.56 3.11 C-0.69 20.92 -1.57 41.13 9.02 56.61 C11.9 60.09 15.16 62.64 19 65 C17.51 65.5 17.51 65.5 16 66 C7.11 61.09 2.58 53.66 -0.42 44.27 C-2.06 37.81 -2.19 31.57 -2.19 24.94 C-2.19 23.92 -2.19 22.9 -2.19 21.85 C-2.14 14.39 -1.57 7.31 0 0 Z " fill="#DC3638" transform="translate(582,258)"/>
<path d="M0 0 C4.04 -0.02 8.08 -0.04 12.12 -0.05 C13.49 -0.06 14.86 -0.07 16.23 -0.08 C18.21 -0.09 20.19 -0.09 22.17 -0.1 C23.36 -0.1 24.55 -0.11 25.77 -0.11 C28.65 -0.01 31.21 0.33 34 1 C33.01 1.66 32.02 2.32 31 3 C31.33 3.97 31.66 4.94 32 5.94 C33.27 10.3 33.18 14.5 33 19 C32.67 19 32.34 19 32 19 C32 16.69 32 14.38 32 12 C31.34 12 30.68 12 30 12 C29.67 10.35 29.34 8.7 29 7 C28.34 7 27.68 7 27 7 C27 6.34 27 5.68 27 5 C24.36 5.66 21.72 6.32 19 7 C19.33 5.35 19.66 3.7 20 2 C15.05 2 10.1 2 5 2 C5.33 4.31 5.66 6.62 6 9 C5.56 11.94 5.56 11.94 5 14 C4.67 14 4.34 14 4 14 C3.82 12.99 3.82 12.99 3.63 11.95 C3.47 11.06 3.3 10.17 3.12 9.25 C2.96 8.37 2.8 7.49 2.63 6.58 C2.03 4.12 1.16 2.23 0 0 Z " fill="#D43F41" transform="translate(758,925)"/>
<path d="M0 0 C1.98 0 3.96 0 6 0 C6.66 1.32 7.32 2.64 8 4 C7.01 4 6.02 4 5 4 C5.33 6.64 5.66 9.28 6 12 C8.48 12.99 8.48 12.99 11 14 C11.33 13.01 11.66 12.02 12 11 C16.75 9.88 16.75 9.88 19 11 C18.69 12.88 18.69 12.88 18 15 C14.18 17.55 12.55 17.6 8 17 C4.76 15.49 2.29 13.75 0 11 C-1.22 7.26 -1.8 3.59 0 0 Z " fill="#E6E3DE" transform="translate(485,377)"/>
<path d="M0 0 C0.66 0 1.32 0 2 0 C2 9.24 2 18.48 2 28 C2.99 24.53 2.99 24.53 4 21 C4.66 21 5.32 21 6 21 C5.34 25.62 4.68 30.24 4 35 C4.99 35.33 5.98 35.66 7 36 C7 36.66 7 37.32 7 38 C9.64 38 12.28 38 15 38 C15 38.33 15 38.66 15 39 C12.03 39 9.06 39 6 39 C6 40.32 6 41.64 6 43 C5.34 43 4.68 43 4 43 C-2.65 34.88 -1.53 25.87 -1 16 C-0.96 15.21 -0.92 14.43 -0.88 13.62 C-0.64 9.07 -0.35 4.54 0 0 Z " fill="#EAEAE6" transform="translate(750,940)"/>
<path d="M0 0 C0.56 0.27 1.11 0.54 1.69 0.81 C1.69 1.47 1.69 2.13 1.69 2.81 C2.35 2.81 3.01 2.81 3.69 2.81 C5.14 5.72 5.06 7.59 4.69 10.81 C3.21 13.09 1.57 14.83 -0.31 16.81 C-7.03 11.98 -7.03 11.98 -8.06 7.75 C-7 3.59 -4.74 -0.38 0 0 Z " fill="#F6F6F5" transform="translate(534.3125,311.1875)"/>
<path d="M0 0 C0.66 0 1.32 0 2 0 C1.98 0.8 1.96 1.61 1.94 2.44 C1.7 4.93 1.7 4.93 3 6 C5.53 6.24 8.03 6.42 10.56 6.56 C11.63 6.63 11.63 6.63 12.72 6.69 C14.48 6.8 16.24 6.9 18 7 C18.66 9.31 19.32 11.62 20 14 C19.01 14.5 19.01 14.5 18 15 C17.34 14.67 16.68 14.34 16 14 C13.18 13.79 10.38 13.63 7.56 13.5 C-0.6 13.13 -0.6 13.13 -4 12 C-3.01 11.67 -2.02 11.34 -1 11 C-1.31 9.67 -1.31 9.67 -1.62 8.31 C-2.03 4.77 -1.57 3.13 0 0 Z " fill="#D34143" transform="translate(554,946)"/>
<path d="M0 0 C2.38 1 2.38 1 3.57 2.78 C4.54 5.45 4.34 6.82 3.69 9.56 C3.52 10.33 3.35 11.09 3.18 11.88 C2.29 14.22 1.25 15.38 -0.62 17 C-6.45 12.03 -6.45 12.03 -7.25 7.38 C-6.62 4 -6.62 4 -4.94 1.5 C-2.62 0 -2.62 0 0 0 Z " fill="#F8F8F8" transform="translate(450.625,339)"/>
<path d="M0 0 C0.33 0.66 0.66 1.32 1 2 C0.29 3.27 0.29 3.27 -0.43 4.57 C-2.4 8.88 -2.34 12.21 -2.19 16.88 C-2.17 17.66 -2.16 18.44 -2.15 19.25 C-2.11 21.17 -2.06 23.08 -2 25 C-1.01 25 -0.02 25 1 25 C1 22.36 1 19.72 1 17 C1.33 17 1.66 17 2 17 C2.12 17.69 2.24 18.37 2.37 19.08 C2.53 19.98 2.7 20.88 2.88 21.81 C3.04 22.71 3.2 23.6 3.37 24.52 C3.91 27.23 3.91 27.23 6 30 C4.33 30 2.67 30 1 30 C1.66 31.98 2.32 33.96 3 36 C1.14 35.77 1.14 35.77 -1 35 C-2.23 33.07 -2.23 33.07 -3.19 30.69 C-3.51 29.91 -3.83 29.13 -4.17 28.32 C-5.7 24.06 -6.14 20.49 -6.12 15.94 C-6.13 14.89 -6.13 13.85 -6.13 12.78 C-6 10 -6 10 -5 7 C-4.34 7 -3.68 7 -3 7 C-2.69 6.03 -2.38 5.06 -2.06 4.06 C-1 1 -1 1 0 0 Z " fill="#D44143" transform="translate(464,279)"/>
<path d="M0 0 C0.33 0 0.66 0 1 0 C1.06 0.75 1.12 1.5 1.18 2.27 C1.31 3.74 1.31 3.74 1.44 5.25 C1.52 6.22 1.6 7.2 1.68 8.2 C1.89 10.92 1.89 10.92 2.71 13.09 C3 15 3 15 1.88 17.15 C-4.69 25.47 -12.66 31.17 -23 34 C-23.66 33.67 -24.32 33.34 -25 33 C-25 32.34 -25 31.68 -25 31 C-24.09 30.9 -23.18 30.79 -22.25 30.69 C-18.84 29.97 -17.67 29.1 -15 27 C-14.04 26.41 -14.04 26.41 -13.07 25.82 C-6.6 21.65 -3.61 16.13 -1 9 C-0.34 5.91 -0.11 3.18 0 0 Z " fill="#865F4E" transform="translate(881,436)"/>
<path d="M0 0 C3.61 2.18 5.9 4.82 8.19 8.32 C8.59 8.93 8.99 9.54 9.4 10.17 C12.55 15.64 12.96 21.1 13.19 27.32 C11.63 24.45 10.72 21.74 9.94 18.57 C7.92 11.76 4.67 6.37 -1.69 2.89 C-9.26 -0.34 -16.04 -0.02 -23.81 2.32 C-25.51 3.28 -27.19 4.26 -28.81 5.32 C-29.47 4.99 -30.13 4.66 -30.81 4.32 C-25.06 0.32 -25.06 0.32 -22.81 0.32 C-22.81 -0.34 -22.81 -1 -22.81 -1.68 C-15.3 -4.18 -7.13 -3.26 0 0 Z " fill="#D73B3D" transform="translate(501.8125,267.67578125)"/>
<path d="M0 0 C4.83 2.45 7.26 7 8.93 12.01 C10.24 17.79 10.08 23.89 10.04 29.8 C10.04 35.96 10.33 39.53 14.44 44.25 C13.78 44.91 13.12 45.57 12.44 46.25 C7.83 39.85 7.7 33.92 7.38 26.19 C7.03 14.69 7.03 14.69 1.44 4.94 C-3.02 2.43 -7.52 2.43 -12.56 2.25 C-12.56 1.59 -12.56 0.93 -12.56 0.25 C-8.5 -1.78 -4.3 -0.9 0 0 Z " fill="#D33F41" transform="translate(579.5625,924.75)"/>
<path d="M0 0 C0.93 0.21 1.86 0.41 2.81 0.62 C2.81 1.94 2.81 3.26 2.81 4.62 C-1.41 8.5 -4.58 10.9 -10.38 10.75 C-11.28 10.73 -12.18 10.71 -13.11 10.7 C-13.79 10.67 -14.48 10.65 -15.19 10.62 C-15.52 9.63 -15.85 8.64 -16.19 7.62 C-15.5 7.22 -14.81 6.81 -14.11 6.38 C-13.2 5.84 -12.3 5.31 -11.38 4.75 C-10.48 4.22 -9.59 3.68 -8.67 3.13 C-2.94 -0.35 -2.94 -0.35 0 0 Z " fill="#F9FBFA" transform="translate(556.1875,322.375)"/>
<path d="M0 0 C3.01 0.35 4.18 1.16 6.51 3.18 C11.46 7.4 17.27 10.36 22.92 13.54 C31.22 18.36 31.22 18.36 33 23 C33 23.99 33 24.98 33 26 C32.34 26 31.68 26 31 26 C30.36 25.32 29.72 24.64 29.06 23.94 C26.64 21.41 24.06 19.74 21.06 17.94 C16.13 14.9 11.76 11.46 7.38 7.69 C6.76 7.16 6.14 6.63 5.51 6.09 C1.14 2.27 1.14 2.27 0 0 Z " fill="#D7E6DF" transform="translate(584,195)"/>
<path d="M0 0 C1.52 3.92 0.39 6.57 -0.94 10.44 C-2.32 14.47 -3.26 17.73 -3 22 C-1.86 20.98 -1.86 20.98 -0.69 19.94 C0.2 19.3 1.09 18.66 2 18 C2.99 18.33 3.98 18.66 5 19 C5 20.32 5 21.64 5 23 C6.32 23.33 7.64 23.66 9 24 C1.48 27.68 -5.83 27.29 -14 27 C-14 26.67 -14 26.34 -14 26 C-10.04 25.5 -10.04 25.5 -6 25 C-5.85 23.93 -5.85 23.93 -5.7 22.83 C-4.52 14.95 -2.51 7.56 0 0 Z " fill="#D34143" transform="translate(504,946)"/>
<path d="M0 0 C1.32 0.66 2.64 1.32 4 2 C3.67 5.01 3.16 6.78 1.38 9.25 C-1.8 11.59 -4.09 11.93 -8 12 C-10.44 10.56 -10.44 10.56 -12 9 C-11 6 -11 6 -9 4.9 C-8.2 4.58 -7.39 4.27 -6.56 3.94 C-3.75 2.81 -2.16 2.16 0 0 Z " fill="#F2F2F0" transform="translate(468,348)"/>
<path d="M0 0 C0.85 0 1.7 0.01 2.58 0.01 C3.47 0.02 4.36 0.03 5.27 0.04 C6.17 0.04 7.07 0.04 7.99 0.05 C10.21 0.06 12.43 0.08 14.65 0.1 C14.32 0.76 13.99 1.42 13.65 2.1 C11.09 2.72 11.09 2.72 8.65 3.1 C10.96 3.76 13.27 4.42 15.65 5.1 C15.65 5.43 15.65 5.76 15.65 6.1 C7.07 6.1 -1.51 6.1 -10.35 6.1 C-7.43 4.15 -5.73 3.64 -2.35 3.1 C-3.67 2.44 -4.99 1.78 -6.35 1.1 C-4 -0.08 -2.61 -0.02 0 0 Z " fill="#D43D3F" transform="translate(719.3515625,954.90234375)"/>
<path d="M0 0 C0.99 0 1.98 0 3 0 C3.33 2.31 3.66 4.62 4 7 C4.99 6.67 5.98 6.34 7 6 C7 9.3 7 12.6 7 16 C6.01 15.34 5.02 14.68 4 14 C3.01 14.66 2.02 15.32 1 16 C0.67 10.72 0.34 5.44 0 0 Z M0 16 C0.33 16.99 0.66 17.98 1 19 C0.01 19.5 0.01 19.5 -1 20 C-0.67 18.68 -0.34 17.36 0 16 Z M-3 22 C-2.67 22.66 -2.34 23.32 -2 24 C-2.66 23.67 -3.32 23.34 -4 23 C-3.67 22.67 -3.34 22.34 -3 22 Z M-7 26 C-6.67 26.66 -6.34 27.32 -6 28 C-7.32 28.33 -8.64 28.66 -10 29 C-9.01 28.01 -8.02 27.02 -7 26 Z M-12 29 C-11.34 29.33 -10.68 29.66 -10 30 C-10.99 31.49 -10.99 31.49 -12 33 C-15.62 33.69 -15.62 33.69 -19 34 C-19 33.34 -19 32.68 -19 32 C-16.7 30.93 -14.36 29.94 -12 29 Z " fill="#F4F4F3" transform="translate(484,334)"/>
<path d="M0 0 C0 0.66 0 1.32 0 2 C-1.35 1.71 -2.71 1.42 -4.06 1.12 C-5.19 0.88 -5.19 0.88 -6.35 0.63 C-8.37 0.15 -10.36 -0.42 -12.35 -1.04 C-19.23 -2.85 -27.2 -3.64 -33.87 -0.76 C-37.29 1.5 -40.15 4.07 -43 7 C-43.33 6.01 -43.66 5.02 -44 4 C-42.78 2.87 -41.55 1.74 -40.31 0.62 C-39.63 -0 -38.94 -0.63 -38.24 -1.27 C-27.26 -9.74 -11.54 -4.64 0 0 Z " fill="#DC3335" transform="translate(630,244)"/>
<path d="M0 0 C0.97 0.85 1.94 1.69 2.94 2.56 C4.29 3.71 5.64 4.86 7 6 C7.69 6.59 8.37 7.18 9.08 7.78 C17.18 14.44 25.71 18.15 36 20 C36 20.66 36 21.32 36 22 C29.62 22.41 25.61 21.43 20 18.44 C19.3 18.08 18.6 17.71 17.89 17.34 C10.7 13.5 4.65 8.78 0 2 C0 1.34 0 0.68 0 0 Z " fill="#D8383A" transform="translate(692,387)"/>
<path d="M0 0 C0.66 0 1.32 0 2 0 C2 0.66 2 1.32 2 2 C3.65 2 5.3 2 7 2 C6.44 2.41 5.89 2.82 5.31 3.25 C4.17 4.12 4.17 4.12 3 5 C2.17 5.54 1.35 6.07 0.5 6.62 C-5.68 12.5 -6.85 20.87 -8 29 C-8.99 27.68 -9.98 26.36 -11 25 C-10.34 25 -9.68 25 -9 25 C-8.67 21.04 -8.34 17.08 -8 13 C-8.99 12.67 -9.98 12.34 -11 12 C-6.48 7.22 -6.48 7.22 -3.75 5.94 C-1.79 5.14 -1.79 5.14 -1.31 2.94 C-1.21 2.3 -1.11 1.66 -1 1 C-0.67 0.67 -0.34 0.34 0 0 Z " fill="#E6E3DE" transform="translate(572,324)"/>
<path d="M0 0 C0.57 0.27 1.14 0.53 1.72 0.8 C6.43 2.96 10.98 4.72 16 6 C16 6.33 16 6.66 16 7 C-3.8 7 -23.6 7 -44 7 C-44 6.67 -44 6.34 -44 6 C-43.44 5.99 -42.88 5.98 -42.3 5.97 C-36.48 5.86 -30.65 5.75 -24.83 5.63 C-22.65 5.58 -20.48 5.54 -18.3 5.5 C-15.18 5.45 -12.06 5.38 -8.94 5.32 C-7.96 5.3 -6.98 5.28 -5.97 5.27 C-5.07 5.25 -4.17 5.23 -3.24 5.21 C-2.05 5.18 -2.05 5.18 -0.83 5.16 C1.02 5.2 1.02 5.2 2 4 C1.34 3.67 0.68 3.34 0 3 C0 2.01 0 1.02 0 0 Z " fill="#E8DED9" transform="translate(505,553)"/>
<path d="M0 0 C0.66 0 1.32 0 2 0 C2 3.63 2 7.26 2 11 C2.66 11 3.32 11 4 11 C4 8.03 4 5.06 4 2 C4.66 2 5.32 2 6 2 C5.94 3.26 5.88 4.52 5.81 5.81 C5.7 9.08 5.7 9.08 7.5 11.69 C8 12.12 8.49 12.55 9 13 C9.19 15.69 9.19 15.69 9 18 C5.12 17.43 2.88 15.57 0 13 C-1.57 9.86 -1.23 6.44 -1 3 C-0.67 2.01 -0.34 1.02 0 0 Z " fill="#E7E1DC" transform="translate(692,963)"/>
<path d="M0 0 C0.25 2.31 0.25 2.31 0 5 C-1.79 7.16 -3.16 7.89 -5.94 8.25 C-9.81 8.36 -11.74 8.17 -15 6 C-5.77 -0.89 -5.77 -0.89 0 0 Z " fill="#E6E1DC" transform="translate(593,360)"/>
<path d="M0 0 C0.58 0.29 1.15 0.58 1.75 0.88 C2.08 1.87 2.41 2.86 2.75 3.88 C1.54 5.92 1.54 5.92 -0.19 8.06 C-0.75 8.78 -1.32 9.49 -1.9 10.23 C-2.35 10.77 -2.79 11.32 -3.25 11.88 C-4.9 10.56 -6.55 9.24 -8.25 7.88 C-8.06 5.56 -8.06 5.56 -7.25 2.88 C-4.74 0.84 -3.27 -0.18 0 0 Z " fill="#E6E6E1" transform="translate(578.25,351.125)"/>
<path d="M0 0 C-0.66 1.65 -1.32 3.3 -2 5 C-1.34 5.33 -0.68 5.66 0 6 C-0.63 6.19 -1.25 6.39 -1.9 6.59 C-2.72 6.85 -3.53 7.11 -4.38 7.38 C-5.19 7.63 -6 7.89 -6.84 8.15 C-9.16 8.9 -9.16 8.9 -11 11 C-11.66 10.34 -12.32 9.68 -13 9 C-13.99 9.99 -14.98 10.98 -16 12 C-16.33 11.01 -16.66 10.02 -17 9 C-15.75 7.87 -14.5 6.75 -13.25 5.62 C-12.55 5 -11.86 4.37 -11.14 3.73 C-7.39 0.7 -4.83 -0.27 0 0 Z " fill="#E8E6E2" transform="translate(502,920)"/>
<path d="M0 0 C1.59 2.07 3.1 4.16 4.54 6.33 C7.94 11.46 11.38 15.56 16.13 19.46 C18.59 21.49 20.78 23.71 23 26 C12.68 22.31 4.27 13.48 -1 4 C-0.74 1.64 -0.74 1.64 0 0 Z " fill="#D33E40" transform="translate(681,385)"/>
<path d="M0 0 C0.66 0 1.32 0 2 0 C3.88 5.21 1.77 9.06 -0.25 13.88 C-0.56 14.65 -0.88 15.43 -1.2 16.23 C-3.07 20.85 -5.02 25.43 -7 30 C-8.24 26.42 -7.75 23.66 -7 20 C-6.34 20 -5.68 20 -5 20 C-4.92 18.74 -4.84 17.48 -4.75 16.19 C-4.14 10.44 -2.14 5.33 0 0 Z " fill="#CBE1D8" transform="translate(587,774)"/>
<path d="M0 0 C0.66 0.66 1.32 1.32 2 2 C4.67 2.33 4.67 2.33 7.83 2.32 C9.66 2.35 9.66 2.35 11.53 2.38 C12.86 2.39 14.2 2.4 15.54 2.41 C16.9 2.43 18.27 2.45 19.63 2.47 C23.23 2.52 26.82 2.56 30.41 2.6 C34.08 2.64 37.75 2.69 41.41 2.74 C48.61 2.84 55.8 2.92 63 3 C63 3.33 63 3.66 63 4 C40.56 4 18.12 4 -5 4 C-3.35 2.68 -1.7 1.36 0 0 Z " fill="#ECCAC5" transform="translate(777,556)"/>
<path d="M0 0 C2.51 0.38 3.71 0.67 5.42 2.6 C6.08 3.6 6.08 3.6 6.75 4.62 C12.67 12.95 21.29 19.66 31 23 C27.11 24.3 26.13 23.46 22.5 21.69 C12.8 16.62 5.18 9.65 0 0 Z " fill="#D53D3F" transform="translate(787,392)"/>
<path d="M0 0 C-0.66 6.75 -1.72 13.34 -3 20 C-3.33 20 -3.66 20 -4 20 C-4 18.02 -4 16.04 -4 14 C-5.32 14.33 -6.64 14.66 -8 15 C-7.53 9.3 -6.16 5.79 -3 1 C-1 0 -1 0 0 0 Z " fill="#E8D9D4" transform="translate(680,941)"/>
<path d="M0 0 C10.83 3.38 17.83 12.48 23.12 21.98 C24 24 24 24 24 27 C23.34 27 22.68 27 22 27 C21.67 26.32 21.34 25.64 21 24.95 C15.88 14.91 9.41 7.21 0 1 C0 0.67 0 0.34 0 0 Z " fill="#D6393B" transform="translate(755,316)"/>
<path d="M0 0 C0.33 0 0.66 0 1 0 C1.66 6.93 2.32 13.86 3 21 C2.34 21 1.68 21 1 21 C1 19.02 1 17.04 1 15 C0.01 15 -0.98 15 -2 15 C-2.33 15.99 -2.66 16.98 -3 18 C-4.74 15.39 -5.03 14.23 -4.61 11.05 C-4.33 10.01 -4.04 8.96 -3.75 7.88 C-3.48 6.82 -3.2 5.77 -2.92 4.68 C-2 2 -2 2 0 0 Z " fill="#E6D5D0" transform="translate(643,940)"/>
<path d="M0 0 C1.5 1.25 1.5 1.25 3 3 C3 4.32 3 5.64 3 7 C4.98 7.66 6.96 8.32 9 9 C9 10.32 9 11.64 9 13 C5.65 13.38 4.19 13.11 1.25 11.38 C-1.46 8.52 -1.92 6.9 -2 3 C-1.34 2.01 -0.68 1.02 0 0 Z " fill="#E7DAD5" transform="translate(498,341)"/>
<path d="M0 0 C7.05 1.85 11.23 5.2 14.88 11.38 C18.01 17.99 17.43 24.86 17 32 C16.01 32.5 16.01 32.5 15 33 C15.07 32.03 15.14 31.07 15.21 30.07 C15.53 22.35 15.51 16.61 10.93 10.03 C7.79 6.72 4.18 4.76 0 3 C0 2.01 0 1.02 0 0 Z " fill="#D44142" transform="translate(521,913)"/>
<path d="M0 0 C7.25 -0.99 13.02 2.07 19 6 C22.21 9.24 23 12.1 23 16.69 C21.93 20.23 20.85 21.7 18 24 C17.34 23.67 16.68 23.34 16 23 C16.64 22.44 17.28 21.89 17.94 21.31 C20.27 18.7 20.92 17.48 21 14 C18.93 9.49 16.62 7.89 12.19 5.81 C11.17 5.32 10.15 4.84 9.11 4.33 C6.11 3.05 3.11 1.98 0 1 C0 0.67 0 0.34 0 0 Z " fill="#D33E40" transform="translate(832,386)"/>
<path d="M0 0 C5 1.67 10 3.33 15 5 C14.34 6.65 13.68 8.3 13 10 C8.38 9.34 3.76 8.68 -1 8 C-0.01 7.34 0.98 6.68 2 6 C1.34 4.02 0.68 2.04 0 0 Z " fill="#E6E4DF" transform="translate(493,354)"/>
<path d="M0 0 C1.92 -0 1.92 -0 3.89 -0.01 C6.59 0.1 8.75 0.31 11.31 1.12 C11.31 1.78 11.31 2.45 11.31 3.12 C2.73 3.12 -5.85 3.12 -14.69 3.12 C-14.69 2.47 -14.69 1.8 -14.69 1.12 C-9.74 0.32 -5.03 -0.01 0 0 Z " fill="#D73F41" transform="translate(507.6875,910.875)"/>
<path d="M0 0 C3 1 3 1 4.54 3.91 C5.06 5.15 5.56 6.38 6.06 7.62 C6.57 8.83 7.08 10.04 7.6 11.29 C8.94 14.85 10.02 18.33 11 22 C11.84 21.75 11.84 21.75 12.7 21.5 C15.13 20.97 17.27 20.9 19.75 20.94 C20.55 20.95 21.35 20.96 22.17 20.96 C22.78 20.98 23.38 20.99 24 21 C24 21.33 24 21.66 24 22 C19.07 23.97 15.22 24.18 10 24 C7.15 17.73 4.52 11.4 2 5 C1.33 3.33 0.67 1.67 0 0 Z " fill="#D54849" transform="translate(784,322)"/>
<path d="M0 0 C7.72 -0.58 15.19 0.74 21.22 5.91 C24.15 9.13 26.2 11.65 27 16 C26.28 15.26 25.56 14.51 24.81 13.75 C20.28 9.31 16.44 6.53 10.44 4.38 C6.85 3.07 3.37 1.8 0 0 Z " fill="#D63D3F" transform="translate(648,250)"/>
<path d="M0 0 C15.32 -0.84 15.32 -0.84 21 4 C23.05 6.49 24.81 8.99 26 12 C25.67 12.66 25.34 13.32 25 14 C24.56 13.46 24.13 12.91 23.68 12.36 C19.3 7.1 16.04 3.52 8.96 2.61 C5.97 2.34 2.99 2.14 0 2 C0 1.34 0 0.68 0 0 Z " fill="#D73C3E" transform="translate(579,326)"/>
<path d="M0 0 C-0.31 1.88 -0.31 1.88 -1 4 C-4.69 6.46 -6.64 6.31 -11 6 C-11.99 5.34 -12.98 4.68 -14 4 C-13.67 3.01 -13.34 2.02 -13 1 C-10.52 1.99 -10.52 1.99 -8 3 C-7.67 2.01 -7.34 1.02 -7 0 C-4.33 -1.33 -2.83 -0.67 0 0 Z " fill="#E7DFDA" transform="translate(504,388)"/>
<path d="M0 0 C0.33 0 0.66 0 1 0 C1.01 0.74 1.02 1.47 1.03 2.23 C1.08 5.57 1.17 8.91 1.25 12.25 C1.26 13.41 1.28 14.57 1.29 15.76 C1.33 16.88 1.36 17.99 1.39 19.14 C1.41 20.17 1.43 21.19 1.45 22.25 C2.13 25.67 3.27 26.88 6 29 C10.14 29.72 11.73 29.16 15.38 27 C16.24 26.34 17.11 25.68 18 25 C16.85 27.47 15.95 29.05 14 31 C11.76 31.27 11.76 31.27 9.12 31.25 C8.26 31.26 7.4 31.26 6.51 31.27 C3.78 30.98 2.21 30.64 0 29 C-1.01 25.35 -1.06 22.03 -0.88 18.26 C-0.81 16.66 -0.81 16.66 -0.73 15.03 C-0.68 13.93 -0.62 12.82 -0.56 11.69 C-0.51 10.57 -0.46 9.44 -0.4 8.29 C-0.27 5.52 -0.14 2.76 0 0 Z " fill="#D34244" transform="translate(735,962)"/>
<path d="M0 0 C1.08 3.25 0.87 3.87 0 7 C-0.74 14.81 1.04 19.86 6 26 C2.65 24.82 0.24 23.81 -2 21 C-3.02 17.95 -3.13 15.82 -3.12 12.62 C-3.13 11.69 -3.13 10.75 -3.13 9.79 C-3 7.09 -2.6 4.63 -2 2 C-1.34 2 -0.68 2 0 2 C0 1.34 0 0.68 0 0 Z " fill="#D73C3E" transform="translate(463,938)"/>
<path d="M0 0 C0.81 0.1 1.62 0.2 2.45 0.31 C3.06 0.39 3.68 0.48 4.31 0.56 C4.31 1.22 4.31 1.88 4.31 2.56 C2 2.89 -0.31 3.22 -2.69 3.56 C-1.37 4.22 -0.05 4.88 1.31 5.56 C-5.12 6.06 -5.12 6.06 -11.69 6.56 C-11.69 5.57 -11.69 4.58 -11.69 3.56 C-7.92 0.18 -4.95 -0.65 0 0 Z " fill="#79513F" transform="translate(863.6875,414.4375)"/>
<path d="M0 0 C1.63 3.26 -0.01 6.45 -0.94 9.81 C-2.81 16.3 -2.81 16.3 -3 23 C-1.6 25.28 -1.6 25.28 0 27 C-4.88 25.12 -4.88 25.12 -6 24 C-5.82 17.24 -4.44 10.58 -3 4 C-2.34 4 -1.68 4 -1 4 C-0.67 2.68 -0.34 1.36 0 0 Z " fill="#D9383A" transform="translate(490,945)"/>
<path d="M0 0 C5.94 0 11.88 0 18 0 C17.67 0.66 17.34 1.32 17 2 C13.04 2 9.08 2 5 2 C5.19 3.05 5.37 4.1 5.56 5.19 C5.95 8.57 5.88 10.76 5 14 C4.67 14 4.34 14 4 14 C3.82 12.99 3.82 12.99 3.63 11.95 C3.47 11.06 3.3 10.17 3.12 9.25 C2.96 8.37 2.8 7.49 2.63 6.58 C2.02 3.67 2.02 3.67 0 0 Z " fill="#D93A3C" transform="translate(758,925)"/>
<path d="M0 0 C2.08 -0.14 4.17 -0.23 6.25 -0.31 C7.41 -0.37 8.57 -0.43 9.77 -0.49 C13 0 13 0 15.32 2.31 C20.32 10.31 21.16 17.8 21 27 C20.67 27 20.34 27 20 27 C19.84 25.85 19.68 24.71 19.52 23.53 C19.28 22 19.05 20.47 18.81 18.94 C18.71 18.19 18.61 17.43 18.51 16.66 C17.59 10.91 15.8 7.44 12 3 C8.99 2 6.96 1.9 3.81 1.94 C2.91 1.95 2.01 1.96 1.08 1.96 C0.05 1.98 0.05 1.98 -1 2 C-0.67 1.34 -0.34 0.68 0 0 Z " fill="#D44244" transform="translate(638,919)"/>
<path d="M0 0 C0.66 0 1.32 0 2 0 C2.03 2.56 2.05 5.12 2.06 7.69 C2.07 8.41 2.08 9.13 2.09 9.87 C2.11 13.72 1.94 17.27 1 21 C1.99 21.33 2.98 21.66 4 22 C2.35 22.66 0.7 23.32 -1 24 C-2.13 19.49 -2.13 19.49 -1.56 17.31 C-0.76 13.99 -0.63 10.65 -0.44 7.25 C-0.39 6.55 -0.35 5.86 -0.31 5.14 C-0.2 3.42 -0.1 1.71 0 0 Z " fill="#EEE1DE" transform="translate(795,355)"/>
<path d="M0 0 C14.58 -0.58 14.58 -0.58 19 3 C20.38 6.19 20.38 6.19 21 9 C20.45 8.57 19.91 8.13 19.35 7.69 C14.44 4.07 11.09 2.33 4.95 2.69 C2.79 2.98 2.79 2.98 0 4 C-0.33 3.34 -0.66 2.68 -1 2 C-0.67 1.34 -0.34 0.68 0 0 Z " fill="#D73B3D" transform="translate(726,926)"/>
<path d="M0 0 C0.99 0.33 1.98 0.66 3 1 C2.25 8.62 2.25 8.62 0 12 C-1.32 11.34 -2.64 10.68 -4 10 C-3.72 8.52 -3.42 7.04 -3.12 5.56 C-2.96 4.74 -2.8 3.92 -2.63 3.07 C-2.42 2.38 -2.22 1.7 -2 1 C-1.34 0.67 -0.68 0.34 0 0 Z " fill="#D44345" transform="translate(740,348)"/>
<path d="M0 0 C2.56 0.31 2.56 0.31 4.15 1.32 C6.34 4.41 6.4 7.83 6.75 11.5 C6.87 12.62 6.87 12.62 7 13.77 C7.2 15.62 7.38 17.46 7.56 19.31 C6.9 19.31 6.24 19.31 5.56 19.31 C5.45 18.5 5.34 17.7 5.23 16.86 C5.07 15.79 4.91 14.73 4.75 13.62 C4.6 12.57 4.45 11.51 4.29 10.43 C3.54 7.21 2.4 5.03 0.56 2.31 C-2.77 3.42 -4.07 4.79 -6.44 7.31 C-3.93 0.5 -3.93 0.5 0 0 Z " fill="#D93A3C" transform="translate(566.4375,932.6875)"/>
<path d="M0 0 C1.32 0 2.64 0 4 0 C4.66 1.65 5.32 3.3 6 5 C7.65 5 9.3 5 11 5 C9.35 6.65 7.7 8.3 6 10 C1.12 8.25 1.12 8.25 0 6 C-0.04 4 -0.04 2 0 0 Z " fill="#D34345" transform="translate(490,381)"/>
<path d="M0 0 C2.5 1.62 2.5 1.62 5 4 C5.38 7.18 5.44 9.13 4 12 C1.52 11.01 1.52 11.01 -1 10 C-1.03 8.52 -1.05 7.04 -1.06 5.56 C-1.07 4.74 -1.09 3.92 -1.1 3.07 C-1 1 -1 1 0 0 Z " fill="#E7DFDA" transform="translate(543,363)"/>
<path d="M0 0 C0.66 0 1.32 0 2 0 C2 1.65 2 3.3 2 5 C6.22 4.52 8.8 3.83 12 1 C12.66 1.33 13.32 1.66 14 2 C10.46 5.12 7.48 6.61 3 8 C2.34 8.66 1.68 9.32 1 10 C-0.99 10.4 -2.99 10.74 -5 11 C-4.55 10.67 -4.09 10.34 -3.62 10 C-1.16 6.96 -0.81 3.81 0 0 Z " fill="#D43F41" transform="translate(454,347)"/>
<path d="M0 0 C0.33 0.66 0.66 1.32 1 2 C0.54 2.88 0.08 3.76 -0.39 4.66 C-2.21 8.43 -2.49 11.22 -2.69 15.38 C-2.79 17.24 -2.79 17.24 -2.89 19.15 C-2.92 20.09 -2.96 21.03 -3 22 C-3.99 22 -4.98 22 -6 22 C-6.03 20.06 -6.05 18.13 -6.06 16.19 C-6.07 15.11 -6.09 14.03 -6.1 12.92 C-6 10 -6 10 -5 7 C-4.34 7 -3.68 7 -3 7 C-2.69 6.03 -2.38 5.06 -2.06 4.06 C-1 1 -1 1 0 0 Z " fill="#D43E40" transform="translate(464,279)"/>
<path d="M0 0 C5.89 0.82 9.05 3.71 13 8 C15.01 10.85 16.83 13.7 18 17 C17.67 17.99 17.34 18.98 17 20 C16.65 19.35 16.3 18.7 15.93 18.02 C11.82 10.73 7.64 5.6 0 2 C0 1.34 0 0.68 0 0 Z " fill="#D53F41" transform="translate(556,283)"/>
<path d="M0 0 C0.33 0 0.66 0 1 0 C1.09 0.81 1.17 1.62 1.26 2.45 C1.89 7.21 2.42 11.05 4.94 15.19 C9.44 17.85 13.85 17.9 19 18 C17 20 17 20 13.88 20.38 C9.28 19.93 5.8 18.61 2 16 C-0.42 12.37 -0.21 10.62 -0.12 6.31 C-0.1 4.54 -0.1 4.54 -0.07 2.74 C-0.05 1.83 -0.02 0.93 0 0 Z " fill="#D6484A" transform="translate(781,964)"/>
<path d="M0 0 C0.99 0 1.98 0 3 0 C3.33 2.31 3.66 4.62 4 7 C4.99 6.67 5.98 6.34 7 6 C7 9.3 7 12.6 7 16 C6.01 15.34 5.02 14.68 4 14 C3.01 14.5 3.01 14.5 2 15 C2 10.38 2 5.76 2 1 C1.34 0.67 0.68 0.34 0 0 Z " fill="#E7E1DC" transform="translate(484,334)"/>
<path d="M0 0 C1.07 0.25 2.14 0.5 3.25 0.75 C-4 8 -4 8 -8.75 8.75 C-8.41 5.72 -7.86 3.91 -6.12 1.38 C-3.75 -0.25 -3.75 -0.25 0 0 Z " fill="#E6DFDA" transform="translate(559.75,372.25)"/>
<path d="M0 0 C0 1.32 0 2.64 0 4 C-2.5 6.25 -2.5 6.25 -5 8 C-5 7.01 -5 6.02 -5 5 C-6.32 4.34 -7.64 3.68 -9 3 C-8.67 2.01 -8.34 1.02 -8 0 C-5.14 -1.43 -3.07 -0.6 0 0 Z " fill="#E6E6E1" transform="translate(559,323)"/>
<path d="M0 0 C2.12 -0.03 4.25 -0.05 6.38 -0.06 C7.56 -0.07 8.74 -0.09 9.96 -0.1 C13 0 13 0 15 1 C15.96 3.88 16.11 5.7 16.06 8.69 C16.05 9.5 16.04 10.3 16.04 11.14 C16.02 11.75 16.01 12.37 16 13 C15.67 13 15.34 13 15 13 C14.76 9.97 14.76 9.97 14.51 6.95 C14.13 4.6 14.13 4.6 11 3 C9.05 2.72 9.05 2.72 7 2.81 C5.98 2.82 5.98 2.82 4.94 2.83 C2.78 2.94 2.78 2.94 0 4 C0 2.68 0 1.36 0 0 Z " fill="#D73B3D" transform="translate(814,925)"/>
<path d="M0 0 C6.17 -0.39 11.51 -0.08 17 3 C19 5.19 19 5.19 20 7 C19.67 7.66 19.34 8.32 19 9 C18.33 8.38 17.65 7.75 16.96 7.11 C13.51 4.65 10.83 4.02 6.69 3.25 C5.43 3.01 4.18 2.77 2.89 2.52 C1.93 2.35 0.98 2.18 0 2 C0 1.34 0 0.68 0 0 Z " fill="#D73B3D" transform="translate(809,341)"/>
<path d="M0 0 C0.66 0 1.32 0 2 0 C2.14 1.13 2.29 2.27 2.44 3.44 C2.61 6.81 2.61 6.81 4 8 C6.99 8.46 9.99 8.7 13 9 C13.66 6.03 14.32 3.06 15 0 C15.33 0 15.66 0 16 0 C15.86 1.48 15.71 2.96 15.56 4.44 C15.48 5.26 15.4 6.08 15.32 6.93 C15 9 15 9 14 10 C11.81 10.07 9.62 10.08 7.44 10.06 C5.64 10.05 5.64 10.05 3.81 10.04 C2.88 10.02 1.95 10.01 1 10 C-1.13 6.26 -0.96 4.21 0 0 Z " fill="#D64042" transform="translate(808,962)"/>
<path d="M0 0 C0.66 0.99 1.32 1.98 2 3 C1.12 3.05 0.24 3.1 -0.67 3.15 C-2.41 3.26 -2.41 3.26 -4.19 3.38 C-5.34 3.44 -6.48 3.51 -7.67 3.59 C-10.8 3.98 -13.15 4.68 -16 6 C-16 4.68 -16 3.36 -16 2 C-14.02 2.5 -14.02 2.5 -12 3 C-12 2.34 -12 1.68 -12 1 C-7.98 -0.34 -4.19 -0.27 0 0 Z " fill="#D2E3DC" transform="translate(326,723)"/>
<path d="M0 0 C0.84 0 1.67 0.01 2.53 0.01 C4.58 0.03 6.64 0.04 8.69 0.06 C8.69 0.72 8.69 1.38 8.69 2.06 C1.1 2.39 -6.49 2.72 -14.31 3.06 C-14.31 2.4 -14.31 1.74 -14.31 1.06 C-9.54 -0.17 -4.89 -0.05 0 0 Z " fill="#DD383A" transform="translate(736.3125,295.9375)"/>
<path d="M0 0 C1.19 0.01 2.38 0.02 3.6 0.03 C4.52 0.04 5.43 0.05 6.38 0.06 C6.38 0.39 6.38 0.72 6.38 1.06 C2.42 1.06 -1.55 1.06 -5.62 1.06 C-5.62 1.72 -5.62 2.38 -5.62 3.06 C-7.12 4.5 -7.12 4.5 -9.06 6.06 C-11.78 8.21 -11.78 8.21 -13.62 11.06 C-14.29 11.06 -14.94 11.06 -15.62 11.06 C-15.95 11.72 -16.29 12.38 -16.62 13.06 C-16.47 8.06 -13.72 5.79 -10.32 2.52 C-6.95 -0.38 -4.35 -0.04 0 0 Z " fill="#E12A2D" transform="translate(495.625,361.9375)"/>
<path d="M0 0 C5.23 -0.31 8.59 0.09 13 3 C14.94 5.56 14.94 5.56 16 8 C15.67 8.66 15.34 9.32 15 10 C14.28 9.22 13.56 8.43 12.81 7.62 C8.89 3.96 6.55 3.05 1.19 2.88 C0.14 2.92 -0.92 2.96 -2 3 C-1.34 2.67 -0.68 2.34 0 2 C0 1.34 0 0.68 0 0 Z " fill="#D63C3E" transform="translate(502,327)"/>
<path d="M0 0 C0.99 0.33 1.98 0.66 3 1 C1.97 1.52 0.94 2.03 -0.12 2.56 C-3.74 4.61 -6.08 7.08 -8.64 10.32 C-10 12 -11.47 13.48 -13 15 C-14.02 16.32 -15.02 17.65 -16 19 C-15.34 13.38 -12.99 9.72 -8.8 6.1 C-2.88 1.44 -2.88 1.44 0 0 Z " fill="#E2282B" transform="translate(476,267)"/>
<path d="M0 0 C0.57 0.27 1.14 0.53 1.72 0.8 C6.43 2.96 10.98 4.72 16 6 C16 6.33 16 6.66 16 7 C11.05 7 6.1 7 1 7 C1.33 6.01 1.66 5.02 2 4 C1.34 3.67 0.68 3.34 0 3 C0 2.01 0 1.02 0 0 Z " fill="#E3D7D2" transform="translate(505,553)"/>
<path d="M0 0 C2.38 1 2.38 1 3.75 2.75 C4.51 5.5 4.13 7.28 3.38 10 C3.05 10 2.71 10 2.38 10 C2.05 7.69 1.71 5.38 1.38 3 C-1.38 3.5 -1.38 3.5 -3.62 5 C-3.67 7.33 -3.67 9.67 -3.62 12 C-4.62 11.67 -5.61 11.34 -6.62 11 C-7.11 4.72 -7.11 4.72 -4.94 1.5 C-2.62 0 -2.62 0 0 0 Z " fill="#EEEEEB" transform="translate(450.625,339)"/>
<path d="M0 0 C0.66 0 1.32 0 2 0 C2 0.66 2 1.32 2 2 C3.65 2 5.3 2 7 2 C6.44 2.41 5.89 2.82 5.31 3.25 C2.07 5.7 -1.12 8.12 -4 11 C-4.99 10.01 -5.98 9.02 -7 8 C-6.2 7.59 -5.39 7.18 -4.56 6.75 C-1.86 5.28 -1.86 5.28 -1.25 2.88 C-1.17 2.26 -1.09 1.64 -1 1 C-0.67 0.67 -0.34 0.34 0 0 Z " fill="#E9D9D4" transform="translate(572,324)"/>
<path d="M0 0 C7.01 -0.45 12.85 0.35 19 4 C19.33 4.99 19.66 5.98 20 7 C16.32 6.35 12.95 5.36 9.44 4.06 C8.51 3.72 7.58 3.38 6.62 3.04 C4.34 2.13 2.17 1.14 0 0 Z " fill="#D74244" transform="translate(746,298)"/>
<path d="M0 0 C0.66 0.33 1.32 0.66 2 1 C1.35 2.46 0.71 3.92 0.06 5.38 C-0.3 6.19 -0.66 7 -1.03 7.84 C-1.66 9.24 -2.31 10.63 -3 12 C-4.32 12 -5.64 12 -7 12 C-9.43 8.36 -9.16 6.29 -9 2 C-8.34 2 -7.68 2 -7 2 C-7 4.31 -7 6.62 -7 9 C-5.68 9 -4.36 9 -3 9 C-2.01 6.03 -1.02 3.06 0 0 Z " fill="#D74647" transform="translate(547,961)"/>
<path d="M0 0 C1.21 0.01 1.21 0.01 2.45 0.03 C3.37 0.04 3.37 0.04 4.31 0.06 C1.91 2.95 0.11 3.53 -3.56 4.06 C-7.57 4.75 -10.26 5.81 -13.69 8.06 C-14.35 7.73 -15.01 7.4 -15.69 7.06 C-9.94 3.06 -9.94 3.06 -7.69 3.06 C-7.69 2.4 -7.69 1.74 -7.69 1.06 C-4.81 0.1 -2.99 -0.04 0 0 Z " fill="#D73C3E" transform="translate(486.6875,264.9375)"/>
<path d="M0 0 C0.66 0.33 1.32 0.66 2 1 C0 4 0 4 -2.25 5.25 C-5.92 7.58 -8.31 10.63 -11 14 C-11.66 13.01 -12.32 12.02 -13 11 C-11.59 9.54 -10.17 8.08 -8.75 6.62 C-7.96 5.81 -7.17 5 -6.36 4.16 C-4.25 2.23 -2.68 0.95 0 0 Z " fill="#DE2D30" transform="translate(724,927)"/>
<path d="M0 0 C2.23 -0.08 4.46 -0.14 6.69 -0.19 C8.55 -0.24 8.55 -0.24 10.45 -0.29 C14.25 0.02 16.01 0.69 19 3 C21.31 6.19 21.31 6.19 23 9 C22.67 9.66 22.34 10.32 22 11 C21.3 10.07 20.6 9.14 19.88 8.19 C15.67 3.23 11.5 1.92 5.12 1.31 C3.42 1.2 1.71 1.09 0 1 C0 0.67 0 0.34 0 0 Z " fill="#D43D3F" transform="translate(490,363)"/>
<path d="M0 0 C0.33 0 0.66 0 1 0 C1.19 1.98 1.38 3.96 1.56 5.94 C1.67 7.04 1.77 8.14 1.88 9.28 C1.92 10.18 1.96 11.07 2 12 C1 13 1 13 -2.31 13.31 C-6 13 -6 13 -8.44 11.31 C-10.26 8.62 -10.35 7.19 -10 4 C-9.34 4 -8.68 4 -8 4 C-7.01 6.31 -6.02 8.62 -5 11 C-3.68 11 -2.36 11 -1 11 C-0.67 7.37 -0.34 3.74 0 0 Z " fill="#D54849" transform="translate(636,960)"/>
<path d="M0 0 C3.36 6.08 2.25 11.56 0.5 18 C0.01 19.67 -0.49 21.34 -1 23 C-1.33 23 -1.66 23 -2 23 C-2.11 17.76 -1.7 12.76 -1 7.56 C-0.9 6.83 -0.81 6.1 -0.71 5.35 C-0.48 3.56 -0.24 1.78 0 0 Z " fill="#DB393B" transform="translate(522,927)"/>
<path d="M0 0 C-0.33 0.99 -0.66 1.98 -1 3 C-2.73 3.56 -2.73 3.56 -4.5 4.12 C-10.34 6.06 -13.96 10.54 -18 15 C-18 12 -18 12 -16 9 C-15.34 9 -14.68 9 -14 9 C-14 8.34 -14 7.68 -14 7 C-8.59 3 -8.59 3 -6 3 C-6 2.34 -6 1.68 -6 1 C-3 0 -3 0 0 0 Z " fill="#D93A3C" transform="translate(460,317)"/>
<path d="M0 0 C0.38 0.48 0.77 0.96 1.16 1.45 C3.59 3.5 5.29 3.53 8.44 3.75 C9.38 3.83 10.33 3.9 11.31 3.98 C13.77 4 15.66 3.73 18 3 C14.98 6.16 13.73 6.95 9.19 7.25 C5.38 7.19 2.94 6.58 0 4 C0 2.68 0 1.36 0 0 Z " fill="#D43F41" transform="translate(478,311)"/>
<path d="M0 0 C1.08 2.07 2.04 4.1 2.86 6.29 C4.76 11.52 4.76 11.52 9.25 14.56 C10.61 14.78 10.61 14.78 12 15 C12 15.33 12 15.66 12 16 C5.09 16.31 5.09 16.31 2 14 C-0.65 9.63 -0.19 4.94 0 0 Z " fill="#D54041" transform="translate(646,955)"/>
<path d="M0 0 C1.85 1.85 3.6 3.7 5.31 5.69 C7.8 8.26 7.8 8.26 11.06 8.38 C13.46 8.07 15.69 7.71 18 7 C16.38 8.94 15.46 9.9 12.95 10.43 C7.53 10.44 4.15 9.84 0 6 C-0.94 3.31 -0.94 3.31 -1 1 C-0.67 0.67 -0.34 0.34 0 0 Z " fill="#D34042" transform="translate(574,964)"/>
<path d="M0 0 C0.33 0 0.66 0 1 0 C1.01 0.59 1.03 1.18 1.04 1.79 C1.32 6.36 1.53 8.44 4.56 12.06 C5.37 12.7 6.17 13.34 7 14 C6 15.5 6 15.5 4 17 C1.28 17.27 -1.26 17.13 -4 17 C-4 16.67 -4 16.34 -4 16 C-2.02 15.67 -0.04 15.34 2 15 C1.67 14.38 1.34 13.76 1 13.12 C-0.4 8.74 -0.16 4.57 0 0 Z " fill="#D33F41" transform="translate(475,949)"/>
<path d="M0 0 C0.66 0 1.32 0 2 0 C2 0.66 2 1.32 2 2 C7.45 1.01 7.45 1.01 13 0 C11.19 2 11.19 2 9 4 C8.01 4 7.02 4 6 4 C6 4.66 6 5.32 6 6 C6.66 6.33 7.32 6.66 8 7 C5.69 7 3.38 7 1 7 C1.33 5.68 1.66 4.36 2 3 C1.34 3 0.68 3 0 3 C0 2.01 0 1.02 0 0 Z " fill="#D43F41" transform="translate(772,952)"/>
<path d="M0 0 C0.99 0 1.98 0 3 0 C6.51 5.83 8.68 10.24 7.69 17.09 C6.88 19.34 5.79 20.45 4 22 C4.25 21.18 4.25 21.18 4.51 20.35 C6.05 14.63 6.57 9.52 4 4 C1.53 2.32 1.53 2.32 -1 2 C-0.67 1.34 -0.34 0.68 0 0 Z " fill="#D44547" transform="translate(797,927)"/>
<path d="M0 0 C0.66 0 1.32 0 2 0 C3.26 1.79 3.26 1.79 4.69 4.19 C7.59 8.73 10.45 11.18 15 14 C14.01 14.33 13.02 14.66 12 15 C9.84 13.71 9.84 13.71 7.5 11.81 C6.73 11.2 5.95 10.59 5.16 9.96 C3.07 8.07 1.46 6.41 0 4 C0 2.68 0 1.36 0 0 Z " fill="#D53C3E" transform="translate(586,309)"/>
<path d="M0 0 C0.66 0 1.32 0 2 0 C2 0.66 2 1.32 2 2 C1.34 2 0.68 2 0 2 C0 3.65 0 5.3 0 7 C0.66 7 1.32 7 2 7 C2 7.66 2 8.32 2 9 C2.66 9 3.32 9 4 9 C4.33 10.32 4.66 11.64 5 13 C4.01 13 3.02 13 2 13 C-3 7.65 -3 7.65 -3 5 C-2.34 5 -1.68 5 -1 5 C-0.67 3.35 -0.34 1.7 0 0 Z " fill="#E9C8C2" transform="translate(850,422)"/>
<path d="M0 0 C0.66 0 1.32 0 2 0 C2.66 6.27 3.32 12.54 4 19 C3.34 19 2.68 19 2 19 C-0.31 12.65 -0.2 6.71 0 0 Z " fill="#F2E7E4" transform="translate(685,357)"/>
<path d="M0 0 C0.66 0 1.32 0 2 0 C1.48 4.38 0.94 8.69 0 13 C1.32 13.33 2.64 13.66 4 14 C3 15 3 15 0.44 15.06 C-0.37 15.04 -1.17 15.02 -2 15 C-3.24 11.28 -2.57 9.56 -1.56 5.81 C-1.13 4.18 -1.13 4.18 -0.69 2.52 C-0.46 1.69 -0.24 0.86 0 0 Z " fill="#EDE6E2" transform="translate(776,939)"/>
<path d="M0 0 C3.18 0.26 4.63 0.61 6.88 2.94 C8.52 7.41 7.75 11.37 7 16 C6.67 16 6.34 16 6 16 C6 15.32 5.99 14.65 5.99 13.95 C5.95 8.79 5.95 8.79 3.6 4.45 C1.78 3.22 1.78 3.22 -1 2 C-0.67 1.34 -0.34 0.68 0 0 Z " fill="#D5494A" transform="translate(500,926)"/>
<path d="M0 0 C1.29 3.86 0.28 5.17 -1 9 C-1.29 11.38 -1.5 13.75 -1.66 16.14 C-1.77 16.76 -1.88 17.37 -2 18 C-2.66 18.33 -3.32 18.66 -4 19 C-4.22 12.9 -4.01 7.78 -2 2 C-1.34 2 -0.68 2 0 2 C0 1.34 0 0.68 0 0 Z " fill="#DB3234" transform="translate(523,298)"/>
<path d="M0 0 C0.66 0.33 1.32 0.66 2 1 C2 1.66 2 2.32 2 3 C6.29 3 10.58 3 15 3 C15 3.33 15 3.66 15 4 C10.71 4 6.42 4 2 4 C1.67 5.32 1.34 6.64 1 8 C1 7.01 1 6.02 1 5 C0.01 5.33 -0.98 5.66 -2 6 C-4.69 5.06 -4.69 5.06 -7 4 C-4.51 2.75 -3.59 3.22 -1 4 C-0.67 2.68 -0.34 1.36 0 0 Z " fill="#E7D8D3" transform="translate(807,970)"/>
<path d="M0 0 C1.13 0.02 2.27 0.04 3.44 0.06 C3.11 0.72 2.78 1.38 2.44 2.06 C1.78 2.06 1.12 2.06 0.44 2.06 C0.44 2.72 0.44 3.38 0.44 4.06 C2.42 4.06 4.4 4.06 6.44 4.06 C5.78 4.72 5.12 5.38 4.44 6.06 C0.94 5.94 0.94 5.94 -2.56 5.06 C-4 3 -4 3 -4.56 1.06 C-3.56 0.06 -3.56 0.06 0 0 Z " fill="#E7E2DD" transform="translate(460.5625,353.9375)"/>
<path d="M0 0 C5.76 4.94 8.07 10.56 8.75 18 C8.85 19.67 8.94 21.33 9 23 C7.45 20.13 6.51 17.4 5.69 14.25 C4.24 9.23 2 5.24 -1 1 C-0.67 0.67 -0.34 0.34 0 0 Z " fill="#D34244" transform="translate(506,272)"/>
<path d="M0 0 C0.66 0 1.32 0 2 0 C3.12 1.73 3.12 1.73 4 4 C3.32 6.14 3.32 6.14 2.12 8.25 C1.74 8.96 1.35 9.66 0.95 10.39 C0.63 10.92 0.32 11.45 0 12 C-2 9 -2 9 -1.76 6.74 C-1.44 5.54 -1.44 5.54 -1.12 4.31 C-0.92 3.5 -0.72 2.7 -0.51 1.86 C-0.34 1.25 -0.17 0.63 0 0 Z " fill="#F2F6F4" transform="translate(590,765)"/>
<path d="M0 0 C1.13 0.91 2.26 1.83 3.38 2.75 C4 3.26 4.63 3.77 5.27 4.3 C7.08 6.08 8 7.68 9 10 C7.68 11.32 6.36 12.64 5 14 C4.34 13.67 3.68 13.34 3 13 C3.99 11.35 4.98 9.7 6 8 C5.38 7.73 4.76 7.46 4.12 7.19 C2 6 2 6 0 3 C0 2.01 0 1.02 0 0 Z " fill="#D33E40" transform="translate(691,974)"/>
<path d="M0 0 C0.33 0 0.66 0 1 0 C1.03 2.54 1.05 5.08 1.06 7.62 C1.07 8.34 1.08 9.05 1.09 9.79 C1.11 13.97 0.83 17.87 0 22 C-0.33 22 -0.66 22 -1 22 C-1.33 17.71 -1.66 13.42 -2 9 C-1.34 9 -0.68 9 0 9 C0 6.03 0 3.06 0 0 Z " fill="#E6ECE7" transform="translate(626,193)"/>
<path d="M0 0 C1.69 0.72 3.34 1.52 4.99 2.32 C4.99 3.31 4.99 4.3 4.99 5.32 C1.12 3.45 1.12 3.45 -0.01 2.32 C-2.19 2.09 -4.38 1.91 -6.57 1.76 C-8.37 1.64 -8.37 1.64 -10.2 1.51 C-11.13 1.45 -12.05 1.39 -13.01 1.32 C-8.68 -1.04 -4.81 -1.62 0 0 Z " fill="#D33E40" transform="translate(513.0078125,917.67578125)"/>
<path d="M0 0 C-4.87 3.25 -10.48 2.4 -16.12 1.5 C-16.74 1.34 -17.36 1.17 -18 1 C-18 0.67 -18 0.34 -18 0 C-11.96 -1.51 -6.1 -0.64 0 0 Z " fill="#E9E8E3" transform="translate(770,605)"/>
<path d="M0 0 C0.33 0 0.66 0 1 0 C2.13 6.75 2.68 13.27 1 20 C0.67 20 0.34 20 0 20 C-0.2 17.79 -0.38 15.58 -0.56 13.38 C-0.67 12.15 -0.77 10.92 -0.88 9.65 C-0.99 6.24 -0.69 3.32 0 0 Z " fill="#D33E40" transform="translate(781,350)"/>
<path d="M0 0 C5.65 0.6 10.66 2.08 16 4 C16 4.66 16 5.32 16 6 C10.6 4.85 5.29 3.58 0 2 C0 1.34 0 0.68 0 0 Z " fill="#DC3739" transform="translate(614,240)"/>
<path d="M0 0 C-3.57 3.57 -8.03 3.97 -12.94 4.12 C-13.95 4.08 -14.96 4.04 -16 4 C-16 3.34 -16 2.68 -16 2 C-10.55 0.61 -5.63 -0.24 0 0 Z " fill="#DB3A3C" transform="translate(753,405)"/>
<path d="M0 0 C6.26 -0.53 10.45 1.18 16 4 C15.67 4.99 15.34 5.98 15 7 C13.06 6.21 11.12 5.42 9.19 4.62 C8.11 4.18 7.03 3.74 5.92 3.29 C3 2 3 2 0 0 Z " fill="#DA383A" transform="translate(832,386)"/>
<path d="M0 0 C0.33 0.66 0.66 1.32 1 2 C0.34 2.66 -0.32 3.32 -1 4 C-1 3.34 -1 2.68 -1 2 C-4.63 2.66 -8.26 3.32 -12 4 C-12 3.34 -12 2.68 -12 2 C-4.45 -1.7 -4.45 -1.7 0 0 Z " fill="#EDE2DE" transform="translate(499,304)"/>
<path d="M0 0 C1.65 0 3.3 0 5 0 C7.6 3.9 7.15 7.47 7 12 C6.67 12 6.34 12 6 12 C5.67 9.03 5.34 6.06 5 3 C1.07 3.57 1.07 3.57 -2 6 C-1.49 3.83 -1 2 0 0 Z " fill="#E7E0DB" transform="translate(773,959)"/>
<path d="M0 0 C0.66 0.35 1.33 0.7 2.01 1.06 C3.34 1.74 3.34 1.74 4.69 2.44 C5.99 3.12 5.99 3.12 7.32 3.81 C9.91 4.96 12.21 5.56 15 6 C15 6.33 15 6.66 15 7 C11.7 7 8.4 7 5 7 C4.67 6.34 4.34 5.68 4 5 C2.36 3.96 0.69 2.95 -1 2 C-0.67 1.34 -0.34 0.68 0 0 Z " fill="#E6CBC5" transform="translate(740,553)"/>
<path d="M0 0 C10.56 0.96 10.56 0.96 15 2 C15 2.66 15 3.32 15 4 C9.01 4.32 5.36 3.68 0 1 C0 0.67 0 0.34 0 0 Z " fill="#D94143" transform="translate(713,405)"/>
<path d="M0 0 C0.33 0 0.66 0 1 0 C1.7 2.27 2.38 4.54 3.06 6.81 C3.26 7.46 3.46 8.1 3.67 8.76 C5.11 13.66 5.11 13.66 4 17 C4 16.34 4 15.68 4 15 C3.34 15 2.68 15 2 15 C-0.59 10.14 -0.19 5.35 0 0 Z " fill="#D93E40" transform="translate(675,367)"/>
<path d="M0 0 C0.66 0 1.32 0 2 0 C2.33 1.65 2.66 3.3 3 5 C5.12 5.23 5.12 5.23 6.62 3.5 C7.31 2.76 7.31 2.76 8 2 C7.5 5.69 6.9 7.6 4 10 C2 8.38 2 8.38 0 6 C-0.25 2.75 -0.25 2.75 0 0 Z " fill="#D63E40" transform="translate(697,967)"/>
<path d="M0 0 C0.66 0 1.32 0 2 0 C2.66 2.97 3.32 5.94 4 9 C3.01 9.5 3.01 9.5 2 10 C0.68 8.68 -0.64 7.36 -2 6 C-1.34 4.02 -0.68 2.04 0 0 Z " fill="#744C3A" transform="translate(637,236)"/>
<path d="M0 0 C0.99 0.66 1.98 1.32 3 2 C2 3 2 3 -0.5 3.1 C-2.02 3.08 -2.02 3.08 -3.56 3.06 C-4.57 3.05 -5.59 3.04 -6.63 3.04 C-7.41 3.02 -8.19 3.01 -9 3 C-9 2.34 -9 1.68 -9 1 C-5.98 -0.51 -3.33 -0.18 0 0 Z " fill="#D53A3C" transform="translate(576,924)"/>
<path d="M0 0 C3.3 0 6.6 0 10 0 C10 0.99 10 1.98 10 3 C6.7 3 3.4 3 0 3 C0 2.01 0 1.02 0 0 Z " fill="#DDA7A1" transform="translate(863,472)"/>
<path d="M0 0 C1.67 1.67 3.33 3.33 5 5 C5.93 5.87 6.86 6.73 7.81 7.62 C10 10 10 10 10 13 C6.24 11.75 5.52 10.29 3.31 7.06 C2.69 6.17 2.07 5.27 1.43 4.35 C0 2 0 2 0 0 Z " fill="#D33D3F" transform="translate(798,390)"/>
<path d="M0 0 C7 9.1 7 9.1 7 12 C2.79 10.5 1.08 7.85 -1 4 C-0.75 1.62 -0.75 1.62 0 0 Z " fill="#D73A3C" transform="translate(681,385)"/>
<path d="M0 0 C1.65 0 3.3 0 5 0 C5 0.66 5 1.32 5 2 C5.66 2.33 6.32 2.66 7 3 C6.34 3 5.68 3 5 3 C5.33 4.65 5.66 6.3 6 8 C2.58 6.86 1.85 6 0 3 C0 2.01 0 1.02 0 0 Z " fill="#E9E7E2" transform="translate(798,387)"/>
<path d="M0 0 C2.31 0.33 4.62 0.66 7 1 C7 1.99 7 2.98 7 4 C7.66 4.33 8.32 4.66 9 5 C2.38 5.25 2.38 5.25 -1 3 C-0.67 2.01 -0.34 1.02 0 0 Z " fill="#ECC9C4" transform="translate(491,389)"/>
<path d="M0 0 C0.66 0 1.32 0 2 0 C2.84 1.43 3.67 2.87 4.5 4.31 C5.2 5.51 5.2 5.51 5.91 6.74 C7 9 7 9 7 12 C6.34 12 5.68 12 5 12 C4.16 10.57 3.33 9.13 2.5 7.69 C1.8 6.49 1.8 6.49 1.09 5.26 C0 3 0 3 0 0 Z " fill="#DA3538" transform="translate(772,331)"/>
<path d="M0 0 C0.66 0 1.32 0 2 0 C2 0.66 2 1.32 2 2 C7.28 2.33 12.56 2.66 18 3 C18 3.33 18 3.66 18 4 C12.39 4 6.78 4 1 4 C0.67 2.68 0.34 1.36 0 0 Z " fill="#EAD5D0" transform="translate(713,951)"/>
<path d="M0 0 C2.03 3.35 2.22 5.87 2.12 9.75 C2.11 10.73 2.09 11.72 2.07 12.73 C2.04 13.86 2.04 13.86 2 15 C1.67 15 1.34 15 1 15 C0.67 11.04 0.34 7.08 0 3 C-2.97 2.67 -5.94 2.34 -9 2 C-9 1.67 -9 1.34 -9 1 C-5.94 0.46 -3.11 0 0 0 Z " fill="#D33F41" transform="translate(699,915)"/>
<path d="M0 0 C0.99 0.33 1.98 0.66 3 1 C2.34 1 1.68 1 1 1 C0.75 1.54 0.5 2.07 0.25 2.62 C-1.31 5.58 -3.03 8.3 -5 11 C-5.66 11 -6.32 11 -7 11 C-5.72 6.01 -3.83 3.42 0 0 Z " fill="#DF2C2F" transform="translate(499,328)"/>
<path d="M0 0 C2.87 0.57 3.86 0.86 6 3 C6.2 5.6 6.2 5.6 6.12 8.62 C6.11 9.63 6.09 10.63 6.07 11.66 C6.04 12.82 6.04 12.82 6 14 C5.67 14 5.34 14 5 14 C4.67 10.37 4.34 6.74 4 3 C2.35 3.33 0.7 3.66 -1 4 C-0.67 2.68 -0.34 1.36 0 0 Z " fill="#E9D7D2" transform="translate(470,290)"/>
<path d="M0 0 C0.66 0.33 1.32 0.66 2 1 C-1 4 -4 7 -7 10 C-7.33 9.01 -7.66 8.02 -8 7 C-5.36 4.69 -2.72 2.38 0 0 Z " fill="#DE2E30" transform="translate(594,241)"/>
<path d="M0 0 C2.63 1.15 3.58 2.39 5 4.88 C5 6.2 5 7.51 5 8.88 C4.34 8.88 3.68 8.88 3 8.88 C2.75 8.07 2.5 7.27 2.25 6.44 C1.29 3.72 1.29 3.72 -1 3.12 C-1.66 3.04 -2.32 2.96 -3 2.88 C-3.66 2.54 -4.32 2.22 -5 1.88 C-2 -0.12 -2 -0.12 0 0 Z " fill="#D9383A" transform="translate(729,932.125)"/>
<path d="M0 0 C0.98 0.01 1.97 0.02 2.98 0.03 C4.11 0.04 4.11 0.04 5.25 0.06 C5.25 0.39 5.25 0.72 5.25 1.06 C4.22 1.12 4.22 1.12 3.17 1.18 C2.27 1.24 1.37 1.31 0.44 1.38 C-0.46 1.43 -1.35 1.49 -2.27 1.55 C-5.1 2.13 -5.88 2.96 -7.75 5.06 C-8.41 5.06 -9.07 5.06 -9.75 5.06 C-9.75 3.74 -9.75 2.42 -9.75 1.06 C-6.44 0.06 -3.45 -0.04 0 0 Z " fill="#DB3234" transform="translate(642.75,917.9375)"/>
<path d="M0 0 C0 0.33 0 0.66 0 1 C-4.93 2.97 -8.78 3.18 -14 3 C-14 2.34 -14 1.68 -14 1 C-9.33 -0.21 -4.79 -0.09 0 0 Z " fill="#DA393B" transform="translate(808,343)"/>
<path d="M0 0 C1.45 0.03 1.45 0.03 2.94 0.06 C2.61 0.72 2.28 1.38 1.94 2.06 C3.59 2.39 5.24 2.72 6.94 3.06 C6.94 3.39 6.94 3.72 6.94 4.06 C3.64 4.06 0.34 4.06 -3.06 4.06 C-3.39 3.07 -3.72 2.08 -4.06 1.06 C-3.06 0.06 -3.06 0.06 0 0 Z " fill="#E9D9D4" transform="translate(544.0625,328.9375)"/>
</svg>
